<?xml version="1.0" encoding="UTF-8" standalone="no"?>
<svg width="456px" height="284px" viewBox="0 0 456 284" version="1.1" xmlns="http://www.w3.org/2000/svg" xmlns:xlink="http://www.w3.org/1999/xlink" xmlns:sketch="http://www.bohemiancoding.com/sketch/ns">
    <!-- Generator: Sketch 3.2 (9961) - http://www.bohemiancoding.com/sketch -->
    <title>bars</title>
    <desc>Created with Sketch.</desc>
    <defs></defs>
    <g id="Page-1" stroke="none" stroke-width="1" fill="none" fill-rule="evenodd" sketch:type="MSPage">
        <g id="bars" sketch:type="MSArtboardGroup">
            <rect id="Rectangle-5" fill="#002F6F" sketch:type="MSShapeGroup" x="0" y="0" width="456" height="284"></rect>
            <path d="M24.5,212 L432,212" id="Line" stroke="#FFFFFF" stroke-width="2" stroke-linecap="square" sketch:type="MSShapeGroup"></path>
            <rect id="Rectangle-1" fill="#FFFFFF" sketch:type="MSShapeGroup" x="71.5" y="69" width="50" height="143"></rect>
            <rect id="Rectangle-1" fill="#FFFFFF" sketch:type="MSShapeGroup" x="159.5" y="111" width="50" height="101"></rect>
            <rect id="Rectangle-1" fill="#FFFFFF" sketch:type="MSShapeGroup" x="247.5" y="139" width="50" height="73"></rect>
            <rect id="Rectangle-1" fill="#FFFFFF" sketch:type="MSShapeGroup" x="335.5" y="169" width="50" height="44"></rect>
            <path d="M70.047,238.048 C70.5510025,238.048 70.9663317,237.964001 71.293,237.796 C71.6196683,237.627999 71.9043321,237.436668 72.147,237.222 L72.833,238.09 C72.5343318,238.379335 72.1540023,238.631332 71.692,238.846 C71.2299977,239.060668 70.6630034,239.168 69.991,239.168 C69.4123304,239.168 68.8756691,239.060668 68.381,238.846 C67.8863309,238.631332 67.4616684,238.311669 67.107,237.887 C66.7523316,237.462331 66.4746677,236.93967 66.274,236.319 C66.0733323,235.69833 65.973,234.982004 65.973,234.17 C65.973,233.357996 66.0803323,232.64167 66.295,232.021 C66.5096677,231.40033 66.7989982,230.880002 67.163,230.46 C67.5270018,230.039998 67.9516642,229.722668 68.437,229.508 C68.9223358,229.293332 69.435664,229.186 69.977,229.186 C70.2850015,229.186 70.5649987,229.207 70.817,229.249 C71.0690013,229.291 71.3023323,229.351666 71.517,229.431 C71.7316677,229.510334 71.9346657,229.610666 72.126,229.732 C72.3173343,229.853334 72.5063324,229.988666 72.693,230.138 L71.965,230.992 C71.3956638,230.515998 70.7610035,230.278 70.061,230.278 C69.7063316,230.278 69.3656683,230.345666 69.039,230.481 C68.7123317,230.616334 68.4276679,230.835665 68.185,231.139 C67.9423321,231.442335 67.7486674,231.841331 67.604,232.336 C67.4593326,232.830669 67.387,233.441996 67.387,234.17 C67.387,234.870003 67.454666,235.464998 67.59,235.955 C67.725334,236.445002 67.9119988,236.843998 68.15,237.152 C68.3880012,237.460002 68.6703317,237.686333 68.997,237.831 C69.3236683,237.975667 69.6736648,238.048 70.047,238.048 L70.047,238.048 Z M79.091,235.304 C79.091,234.342662 78.9300016,233.633336 78.608,233.176 C78.2859984,232.718664 77.8170031,232.49 77.201,232.49 C76.5849969,232.49 76.111335,232.718664 75.78,233.176 C75.448665,233.633336 75.283,234.347328 75.283,235.318 C75.283,236.279338 75.4463317,236.988664 75.773,237.446 C76.0996683,237.903336 76.5709969,238.132 77.187,238.132 C77.8030031,238.132 78.2743317,237.903336 78.601,237.446 C78.9276683,236.988664 79.091,236.274672 79.091,235.304 L79.091,235.304 Z M73.897,235.318 C73.897,234.748664 73.9716659,234.226002 74.121,233.75 C74.2703341,233.273998 74.4849986,232.865668 74.765,232.525 C75.0450014,232.184332 75.3903313,231.920668 75.801,231.734 C76.2116687,231.547332 76.6783307,231.454 77.201,231.454 C77.7236693,231.454 78.187998,231.544999 78.594,231.727 C79.000002,231.909001 79.3429986,232.167998 79.623,232.504 C79.9030014,232.840002 80.1153326,233.243664 80.26,233.715 C80.4046674,234.186336 80.477,234.715997 80.477,235.304 C80.477,235.873336 80.4023341,236.395998 80.253,236.872 C80.1036659,237.348002 79.8890014,237.756332 79.609,238.097 C79.3289986,238.437668 78.986002,238.701332 78.58,238.888 C78.173998,239.074668 77.7096693,239.168 77.187,239.168 C76.6643307,239.168 76.1976687,239.077001 75.787,238.895 C75.3763313,238.712999 75.0310014,238.454002 74.751,238.118 C74.4709986,237.781998 74.2586674,237.378336 74.114,236.907 C73.9693326,236.435664 73.897,235.906003 73.897,235.318 L73.897,235.318 Z M82.647,239 L82.647,231.622 L83.753,231.622 L83.851,232.63 C84.1496682,232.247331 84.4856648,231.955668 84.859,231.755 C85.2323352,231.554332 85.6243313,231.454 86.035,231.454 C86.5390025,231.454 86.9379985,231.554332 87.232,231.755 C87.5260015,231.955668 87.7336661,232.247331 87.855,232.63 C88.1536682,232.275332 88.4966647,231.990668 88.884,231.776 C89.2713353,231.561332 89.6749979,231.454 90.095,231.454 C90.8043369,231.454 91.3083318,231.645331 91.607,232.028 C91.9056682,232.410669 92.055,232.94733 92.055,233.638 L92.055,239 L90.767,239 L90.767,233.806 C90.767,233.329998 90.6923341,232.987001 90.543,232.777 C90.3936659,232.566999 90.1276686,232.462 89.745,232.462 C89.5676658,232.462 89.3950008,232.494666 89.227,232.56 C89.0589992,232.625334 88.9003341,232.713999 88.751,232.826 C88.6016659,232.938001 88.4616673,233.066333 88.331,233.211 C88.2003327,233.355667 88.0883338,233.502666 87.995,233.652 L87.995,239 L86.707,239 L86.707,233.708 C86.707,233.259998 86.6276675,232.940334 86.469,232.749 C86.3103325,232.557666 86.0490018,232.462 85.685,232.462 C85.5076658,232.462 85.3350008,232.494666 85.167,232.56 C84.9989992,232.625334 84.8403341,232.713999 84.691,232.826 C84.5416659,232.938001 84.4016673,233.066333 84.271,233.211 C84.1403327,233.355667 84.0283338,233.502666 83.935,233.652 L83.935,239 L82.647,239 Z M94.743,241.982 L94.743,231.622 L95.849,231.622 L95.947,232.63 C96.217668,232.247331 96.5419981,231.955668 96.92,231.755 C97.2980019,231.554332 97.7016645,231.454 98.131,231.454 C98.6163358,231.454 99.0339982,231.544999 99.384,231.727 C99.7340017,231.909001 100.016332,232.167998 100.231,232.504 C100.445668,232.840002 100.604333,233.245998 100.707,233.722 C100.809667,234.198002 100.861,234.72533 100.861,235.304 C100.861,235.864003 100.800334,236.379664 100.679,236.851 C100.557666,237.322336 100.373335,237.730665 100.126,238.076 C99.8786654,238.421335 99.5753351,238.689666 99.216,238.881 C98.8566649,239.072334 98.4390024,239.168 97.963,239.168 C97.1416626,239.168 96.497669,238.888003 96.031,238.328 L96.031,241.828 L94.743,241.982 Z M97.655,238.118 C98.2430029,238.118 98.6933318,237.891669 99.006,237.439 C99.3186682,236.986331 99.475,236.274672 99.475,235.304 C99.475,234.342662 99.3373347,233.631002 99.062,233.169 C98.7866653,232.706998 98.3690028,232.476 97.809,232.476 C97.416998,232.476 97.0716682,232.592666 96.773,232.826 C96.4743318,233.059335 96.227001,233.325332 96.031,233.624 L96.031,237.222 C96.2176676,237.511335 96.4509986,237.732999 96.731,237.887 C97.0110014,238.041001 97.3189983,238.118 97.655,238.118 L97.655,238.118 Z M104.249,231.622 L104.249,236.83 C104.249,237.306002 104.330666,237.646666 104.494,237.852 C104.657334,238.057334 104.939665,238.16 105.341,238.16 C105.723669,238.16 106.071332,238.048001 106.384,237.824 C106.696668,237.599999 106.950999,237.334002 107.147,237.026 L107.147,231.622 L108.435,231.622 L108.435,239 L107.329,239 L107.231,238.02 C106.941665,238.393335 106.603335,238.677999 106.216,238.874 C105.828665,239.070001 105.420335,239.168 104.991,239.168 C104.281663,239.168 103.766002,238.976669 103.444,238.594 C103.121998,238.211331 102.961,237.67467 102.961,236.984 L102.961,231.622 L104.249,231.622 Z M114.917,238.664 C114.692999,238.832001 114.438668,238.958 114.154,239.042 C113.869332,239.126 113.573002,239.168 113.265,239.168 C112.57433,239.168 112.070335,238.972002 111.753,238.58 C111.435665,238.187998 111.277,237.670003 111.277,237.026 L111.277,232.602 L110.101,232.602 L110.101,231.622 L111.277,231.622 L111.277,229.956 L112.565,229.802 L112.565,231.622 L114.427,231.622 L114.273,232.602 L112.565,232.602 L112.565,237.012 C112.565,237.385335 112.630333,237.660666 112.761,237.838 C112.891667,238.015334 113.120332,238.104 113.447,238.104 C113.755002,238.104 114.081665,237.996668 114.427,237.782 L114.917,238.664 Z M117.045,235.752 C117.101,236.573337 117.306332,237.172998 117.661,237.551 C118.015668,237.929002 118.472997,238.118 119.033,238.118 C119.369002,238.118 119.681665,238.069 119.971,237.971 C120.260335,237.873 120.563665,237.693335 120.881,237.432 L121.469,238.286 C121.123665,238.556668 120.745669,238.771333 120.335,238.93 C119.924331,239.088667 119.481002,239.168 119.005,239.168 C118.454331,239.168 117.971335,239.074668 117.556,238.888 C117.140665,238.701332 116.793001,238.440002 116.513,238.104 C116.232999,237.767998 116.023001,237.364336 115.883,236.893 C115.742999,236.421664 115.673,235.89667 115.673,235.318 C115.673,234.757997 115.742999,234.242336 115.883,233.771 C116.023001,233.299664 116.228332,232.893668 116.499,232.553 C116.769668,232.212332 117.096331,231.944001 117.479,231.748 C117.861669,231.551999 118.300331,231.454 118.795,231.454 C119.765672,231.454 120.505331,231.77833 121.014,232.427 C121.522669,233.07567 121.777,233.964661 121.777,235.094 C121.777,235.224667 121.774667,235.345999 121.77,235.458 C121.765333,235.570001 121.758333,235.668 121.749,235.752 L117.045,235.752 Z M118.795,232.476 C118.290997,232.476 117.885002,232.664998 117.577,233.043 C117.268998,233.421002 117.091667,234.006663 117.045,234.8 L120.503,234.8 C120.484333,234.034663 120.339668,233.456002 120.069,233.064 C119.798332,232.671998 119.37367,232.476 118.795,232.476 L118.795,232.476 Z M123.891,239 L123.891,231.622 L125.011,231.622 L125.165,233.036 C125.594335,231.981328 126.238329,231.454 127.097,231.454 C127.358335,231.454 127.600999,231.482 127.825,231.538 L127.587,232.798 C127.474999,232.77 127.372334,232.749 127.279,232.735 C127.185666,232.721 127.073667,232.714 126.943,232.714 C126.709665,232.714 126.499668,232.767666 126.313,232.875 C126.126332,232.982334 125.958334,233.126999 125.809,233.309 C125.659666,233.491001 125.533667,233.700999 125.431,233.939 C125.328333,234.177001 125.244334,234.421999 125.179,234.674 L125.179,239 L123.891,239 Z M79.469,258.312 C79.469,258.732002 79.3920008,259.116998 79.238,259.467 C79.0839992,259.817002 78.8600015,260.117999 78.566,260.37 C78.2719985,260.622001 77.9126688,260.817999 77.488,260.958 C77.0633312,261.098001 76.5850027,261.168 76.053,261.168 C75.3436631,261.168 74.7160027,261.058334 74.17,260.839 C73.6239973,260.619666 73.1503353,260.314002 72.749,259.922 L73.519,259.068 C73.8456683,259.385335 74.2096647,259.632666 74.611,259.81 C75.0123353,259.987334 75.4789973,260.076 76.011,260.076 C76.2910014,260.076 76.5569987,260.041 76.809,259.971 C77.0610013,259.901 77.2826657,259.793667 77.474,259.649 C77.6653343,259.504333 77.8146661,259.324668 77.922,259.11 C78.0293339,258.895332 78.083,258.643335 78.083,258.354 C78.083,258.129999 78.0503337,257.929334 77.985,257.752 C77.9196663,257.574666 77.8076675,257.413667 77.649,257.269 C77.4903325,257.124333 77.275668,256.991334 77.005,256.87 C76.734332,256.748666 76.3983353,256.622667 75.997,256.492 C75.530331,256.351999 75.1173351,256.198001 74.758,256.03 C74.3986649,255.861999 74.1000012,255.668334 73.862,255.449 C73.6239988,255.229666 73.4443339,254.977668 73.323,254.693 C73.2016661,254.408332 73.141,254.079335 73.141,253.706 C73.141,253.332665 73.2156659,252.992002 73.365,252.684 C73.5143341,252.375998 73.7219987,252.110001 73.988,251.886 C74.2540013,251.661999 74.5736648,251.489334 74.947,251.368 C75.3203352,251.246666 75.7309978,251.186 76.179,251.186 C76.8510034,251.186 77.4179977,251.281666 77.88,251.473 C78.3420023,251.664334 78.768998,251.941998 79.161,252.306 L78.405,253.146 C78.0689983,252.837998 77.7260017,252.616334 77.376,252.481 C77.0259983,252.345666 76.6456687,252.278 76.235,252.278 C75.7496642,252.278 75.3390017,252.389999 75.003,252.614 C74.6669983,252.838001 74.499,253.183331 74.499,253.65 C74.499,253.855334 74.5269997,254.034999 74.583,254.189 C74.6390003,254.343001 74.7463325,254.487666 74.905,254.623 C75.0636675,254.758334 75.278332,254.886666 75.549,255.008 C75.819668,255.129334 76.1743311,255.255333 76.613,255.386 C76.9956686,255.507334 77.3596649,255.640333 77.705,255.785 C78.0503351,255.929667 78.3536654,256.111666 78.615,256.331 C78.8763346,256.550334 79.0839992,256.820998 79.238,257.143 C79.3920008,257.465002 79.469,257.854664 79.469,258.312 L79.469,258.312 Z M84.103,260.076 C84.373668,260.076 84.6349987,260.031667 84.887,259.943 C85.1390013,259.854333 85.4143318,259.698001 85.713,259.474 L86.329,260.356 C85.9836649,260.636001 85.6220019,260.841333 85.244,260.972 C84.8659981,261.102667 84.481002,261.168 84.089,261.168 C83.5383306,261.168 83.0576687,261.077001 82.647,260.895 C82.2363313,260.712999 81.8933347,260.456335 81.618,260.125 C81.3426653,259.793665 81.137334,259.392336 81.002,258.921 C80.866666,258.449664 80.799,257.92467 80.799,257.346 C80.799,256.785997 80.8689993,256.270336 81.009,255.799 C81.1490007,255.327664 81.3566653,254.917002 81.632,254.567 C81.9073347,254.216998 82.2503313,253.944001 82.661,253.748 C83.0716687,253.551999 83.5523306,253.454 84.103,253.454 C84.495002,253.454 84.8776648,253.514666 85.251,253.636 C85.6243352,253.757334 85.9836649,253.962665 86.329,254.252 L85.699,255.092 C85.4003318,254.867999 85.1273346,254.716334 84.88,254.637 C84.6326654,254.557666 84.373668,254.518 84.103,254.518 C83.5056637,254.518 83.0366684,254.748998 82.696,255.211 C82.3553316,255.673002 82.185,256.384662 82.185,257.346 C82.185,258.316672 82.3553316,259.014331 82.696,259.439 C83.0366684,259.863669 83.5056637,260.076 84.103,260.076 L84.103,260.076 Z M89.521,251.06 C89.521,251.312001 89.4370008,251.521999 89.269,251.69 C89.1009992,251.858001 88.881668,251.942 88.611,251.942 C88.340332,251.942 88.1233342,251.858001 87.96,251.69 C87.7966658,251.521999 87.715,251.312001 87.715,251.06 C87.715,250.817332 87.7966658,250.612001 87.96,250.444 C88.1233342,250.275999 88.340332,250.192 88.611,250.192 C88.881668,250.192 89.1009992,250.275999 89.269,250.444 C89.4370008,250.612001 89.521,250.817332 89.521,251.06 L89.521,251.06 Z M87.967,261 L87.967,253.622 L89.255,253.622 L89.255,261 L87.967,261 Z M92.741,257.752 C92.7970003,258.573337 93.0023316,259.172998 93.357,259.551 C93.7116684,259.929002 94.1689972,260.118 94.729,260.118 C95.0650017,260.118 95.3776652,260.069 95.667,259.971 C95.9563348,259.873 96.2596651,259.693335 96.577,259.432 L97.165,260.286 C96.8196649,260.556668 96.4416687,260.771333 96.031,260.93 C95.6203313,261.088667 95.1770024,261.168 94.701,261.168 C94.1503306,261.168 93.6673354,261.074668 93.252,260.888 C92.8366646,260.701332 92.4890014,260.440002 92.209,260.104 C91.9289986,259.767998 91.7190007,259.364336 91.579,258.893 C91.4389993,258.421664 91.369,257.89667 91.369,257.318 C91.369,256.757997 91.4389993,256.242336 91.579,255.771 C91.7190007,255.299664 91.924332,254.893668 92.195,254.553 C92.465668,254.212332 92.7923314,253.944001 93.175,253.748 C93.5576686,253.551999 93.9963309,253.454 94.491,253.454 C95.4616715,253.454 96.2013308,253.77833 96.71,254.427 C97.2186692,255.07567 97.473,255.964661 97.473,257.094 C97.473,257.224667 97.4706667,257.345999 97.466,257.458 C97.4613333,257.570001 97.4543334,257.668 97.445,257.752 L92.741,257.752 Z M94.491,254.476 C93.9869975,254.476 93.5810015,254.664998 93.273,255.043 C92.9649985,255.421002 92.7876669,256.006663 92.741,256.8 L96.199,256.8 C96.1803332,256.034663 96.035668,255.456002 95.765,255.064 C95.494332,254.671998 95.0696696,254.476 94.491,254.476 L94.491,254.476 Z M100.875,261 L99.587,261 L99.587,253.622 L100.693,253.622 L100.791,254.63 C101.089668,254.247331 101.446665,253.955668 101.862,253.755 C102.277335,253.554332 102.704331,253.454 103.143,253.454 C103.86167,253.454 104.374998,253.645331 104.683,254.028 C104.991002,254.410669 105.145,254.94733 105.145,255.638 L105.145,261 L103.857,261 L103.857,255.722 C103.857,255.273998 103.770668,254.952001 103.598,254.756 C103.425332,254.559999 103.129002,254.462 102.709,254.462 C102.512999,254.462 102.324001,254.497 102.142,254.567 C101.959999,254.637 101.792001,254.727999 101.638,254.84 C101.483999,254.952001 101.341667,255.080333 101.211,255.225 C101.080333,255.369667 100.968334,255.511999 100.875,255.652 L100.875,261 Z M110.563,260.076 C110.833668,260.076 111.094999,260.031667 111.347,259.943 C111.599001,259.854333 111.874332,259.698001 112.173,259.474 L112.789,260.356 C112.443665,260.636001 112.082002,260.841333 111.704,260.972 C111.325998,261.102667 110.941002,261.168 110.549,261.168 C109.998331,261.168 109.517669,261.077001 109.107,260.895 C108.696331,260.712999 108.353335,260.456335 108.078,260.125 C107.802665,259.793665 107.597334,259.392336 107.462,258.921 C107.326666,258.449664 107.259,257.92467 107.259,257.346 C107.259,256.785997 107.328999,256.270336 107.469,255.799 C107.609001,255.327664 107.816665,254.917002 108.092,254.567 C108.367335,254.216998 108.710331,253.944001 109.121,253.748 C109.531669,253.551999 110.012331,253.454 110.563,253.454 C110.955002,253.454 111.337665,253.514666 111.711,253.636 C112.084335,253.757334 112.443665,253.962665 112.789,254.252 L112.159,255.092 C111.860332,254.867999 111.587335,254.716334 111.34,254.637 C111.092665,254.557666 110.833668,254.518 110.563,254.518 C109.965664,254.518 109.496668,254.748998 109.156,255.211 C108.815332,255.673002 108.645,256.384662 108.645,257.346 C108.645,258.316672 108.815332,259.014331 109.156,259.439 C109.496668,259.863669 109.965664,260.076 110.563,260.076 L110.563,260.076 Z M115.155,257.752 C115.211,258.573337 115.416332,259.172998 115.771,259.551 C116.125668,259.929002 116.582997,260.118 117.143,260.118 C117.479002,260.118 117.791665,260.069 118.081,259.971 C118.370335,259.873 118.673665,259.693335 118.991,259.432 L119.579,260.286 C119.233665,260.556668 118.855669,260.771333 118.445,260.93 C118.034331,261.088667 117.591002,261.168 117.115,261.168 C116.564331,261.168 116.081335,261.074668 115.666,260.888 C115.250665,260.701332 114.903001,260.440002 114.623,260.104 C114.342999,259.767998 114.133001,259.364336 113.993,258.893 C113.852999,258.421664 113.783,257.89667 113.783,257.318 C113.783,256.757997 113.852999,256.242336 113.993,255.771 C114.133001,255.299664 114.338332,254.893668 114.609,254.553 C114.879668,254.212332 115.206331,253.944001 115.589,253.748 C115.971669,253.551999 116.410331,253.454 116.905,253.454 C117.875672,253.454 118.615331,253.77833 119.124,254.427 C119.632669,255.07567 119.887,255.964661 119.887,257.094 C119.887,257.224667 119.884667,257.345999 119.88,257.458 C119.875333,257.570001 119.868333,257.668 119.859,257.752 L115.155,257.752 Z M116.905,254.476 C116.400997,254.476 115.995002,254.664998 115.687,255.043 C115.378998,255.421002 115.201667,256.006663 115.155,256.8 L118.613,256.8 C118.594333,256.034663 118.449668,255.456002 118.179,255.064 C117.908332,254.671998 117.48367,254.476 116.905,254.476 L116.905,254.476 Z" id="Computer-" fill="#FFFFFF" sketch:type="MSShapeGroup"></path>
            <path d="M157.617,239 L157.617,229.354 L158.961,229.354 L158.961,239 L157.617,239 Z M163.091,239 L161.803,239 L161.803,231.622 L162.909,231.622 L163.007,232.63 C163.305668,232.247331 163.662665,231.955668 164.078,231.755 C164.493335,231.554332 164.920331,231.454 165.359,231.454 C166.07767,231.454 166.590998,231.645331 166.899,232.028 C167.207002,232.410669 167.361,232.94733 167.361,233.638 L167.361,239 L166.073,239 L166.073,233.722 C166.073,233.273998 165.986668,232.952001 165.814,232.756 C165.641332,232.559999 165.345002,232.462 164.925,232.462 C164.728999,232.462 164.540001,232.497 164.358,232.567 C164.175999,232.637 164.008001,232.727999 163.854,232.84 C163.699999,232.952001 163.557667,233.080333 163.427,233.225 C163.296333,233.369667 163.184334,233.511999 163.091,233.652 L163.091,239 Z M173.787,238.664 C173.562999,238.832001 173.308668,238.958 173.024,239.042 C172.739332,239.126 172.443002,239.168 172.135,239.168 C171.44433,239.168 170.940335,238.972002 170.623,238.58 C170.305665,238.187998 170.147,237.670003 170.147,237.026 L170.147,232.602 L168.971,232.602 L168.971,231.622 L170.147,231.622 L170.147,229.956 L171.435,229.802 L171.435,231.622 L173.297,231.622 L173.143,232.602 L171.435,232.602 L171.435,237.012 C171.435,237.385335 171.500333,237.660666 171.631,237.838 C171.761667,238.015334 171.990332,238.104 172.317,238.104 C172.625002,238.104 172.951665,237.996668 173.297,237.782 L173.787,238.664 Z M175.915,235.752 C175.971,236.573337 176.176332,237.172998 176.531,237.551 C176.885668,237.929002 177.342997,238.118 177.903,238.118 C178.239002,238.118 178.551665,238.069 178.841,237.971 C179.130335,237.873 179.433665,237.693335 179.751,237.432 L180.339,238.286 C179.993665,238.556668 179.615669,238.771333 179.205,238.93 C178.794331,239.088667 178.351002,239.168 177.875,239.168 C177.324331,239.168 176.841335,239.074668 176.426,238.888 C176.010665,238.701332 175.663001,238.440002 175.383,238.104 C175.102999,237.767998 174.893001,237.364336 174.753,236.893 C174.612999,236.421664 174.543,235.89667 174.543,235.318 C174.543,234.757997 174.612999,234.242336 174.753,233.771 C174.893001,233.299664 175.098332,232.893668 175.369,232.553 C175.639668,232.212332 175.966331,231.944001 176.349,231.748 C176.731669,231.551999 177.170331,231.454 177.665,231.454 C178.635672,231.454 179.375331,231.77833 179.884,232.427 C180.392669,233.07567 180.647,233.964661 180.647,235.094 C180.647,235.224667 180.644667,235.345999 180.64,235.458 C180.635333,235.570001 180.628333,235.668 180.619,235.752 L175.915,235.752 Z M177.665,232.476 C177.160997,232.476 176.755002,232.664998 176.447,233.043 C176.138998,233.421002 175.961667,234.006663 175.915,234.8 L179.373,234.8 C179.354333,234.034663 179.209668,233.456002 178.939,233.064 C178.668332,232.671998 178.24367,232.476 177.665,232.476 L177.665,232.476 Z M182.761,239 L182.761,231.622 L183.881,231.622 L184.035,233.036 C184.464335,231.981328 185.108329,231.454 185.967,231.454 C186.228335,231.454 186.470999,231.482 186.695,231.538 L186.457,232.798 C186.344999,232.77 186.242334,232.749 186.149,232.735 C186.055666,232.721 185.943667,232.714 185.813,232.714 C185.579665,232.714 185.369668,232.767666 185.183,232.875 C184.996332,232.982334 184.828334,233.126999 184.679,233.309 C184.529666,233.491001 184.403667,233.700999 184.301,233.939 C184.198333,234.177001 184.114334,234.421999 184.049,234.674 L184.049,239 L182.761,239 Z M189.425,239 L188.137,239 L188.137,231.622 L189.243,231.622 L189.341,232.63 C189.639668,232.247331 189.996665,231.955668 190.412,231.755 C190.827335,231.554332 191.254331,231.454 191.693,231.454 C192.41167,231.454 192.924998,231.645331 193.233,232.028 C193.541002,232.410669 193.695,232.94733 193.695,233.638 L193.695,239 L192.407,239 L192.407,233.722 C192.407,233.273998 192.320668,232.952001 192.148,232.756 C191.975332,232.559999 191.679002,232.462 191.259,232.462 C191.062999,232.462 190.874001,232.497 190.692,232.567 C190.509999,232.637 190.342001,232.727999 190.188,232.84 C190.033999,232.952001 189.891667,233.080333 189.761,233.225 C189.630333,233.369667 189.518334,233.511999 189.425,233.652 L189.425,239 Z M201.353,237.334 C201.353,237.632668 201.397333,237.844999 201.486,237.971 C201.574667,238.097001 201.712332,238.197333 201.899,238.272 L201.591,239.168 C201.264332,239.121333 200.984334,239.018667 200.751,238.86 C200.517665,238.701333 200.345001,238.458668 200.233,238.132 C199.971665,238.486668 199.652002,238.747999 199.274,238.916 C198.895998,239.084001 198.483002,239.168 198.035,239.168 C197.28833,239.168 196.702669,238.960335 196.278,238.545 C195.853331,238.129665 195.641,237.57667 195.641,236.886 C195.641,236.120663 195.93733,235.532669 196.53,235.122 C197.12267,234.711331 197.983661,234.506 199.113,234.506 L200.065,234.506 L200.065,233.932 C200.065,233.409331 199.934335,233.040668 199.673,232.826 C199.411665,232.611332 199.010336,232.504 198.469,232.504 C198.226332,232.504 197.939335,232.534333 197.608,232.595 C197.276665,232.655667 196.919669,232.751333 196.537,232.882 L196.201,231.93 C196.658336,231.761999 197.092331,231.640667 197.503,231.566 C197.913669,231.491333 198.300998,231.454 198.665,231.454 C199.607671,231.454 200.291331,231.666331 200.716,232.091 C201.140669,232.515669 201.353,233.105996 201.353,233.862 L201.353,237.334 Z M198.385,238.202 C198.739668,238.202 199.054665,238.113334 199.33,237.936 C199.605335,237.758666 199.850332,237.506668 200.065,237.18 L200.065,235.36 L199.183,235.36 C198.389663,235.36 197.836668,235.492999 197.524,235.759 C197.211332,236.025001 197.055,236.381998 197.055,236.83 C197.055,237.287336 197.159999,237.630332 197.37,237.859 C197.580001,238.087668 197.918331,238.202 198.385,238.202 L198.385,238.202 Z M207.765,238.664 C207.540999,238.832001 207.286668,238.958 207.002,239.042 C206.717332,239.126 206.421002,239.168 206.113,239.168 C205.42233,239.168 204.918335,238.972002 204.601,238.58 C204.283665,238.187998 204.125,237.670003 204.125,237.026 L204.125,232.602 L202.949,232.602 L202.949,231.622 L204.125,231.622 L204.125,229.956 L205.413,229.802 L205.413,231.622 L207.275,231.622 L207.121,232.602 L205.413,232.602 L205.413,237.012 C205.413,237.385335 205.478333,237.660666 205.609,237.838 C205.739667,238.015334 205.968332,238.104 206.295,238.104 C206.603002,238.104 206.929665,237.996668 207.275,237.782 L207.765,238.664 Z M209.025,238.188 C209.025,237.917332 209.118332,237.688668 209.305,237.502 C209.491668,237.315332 209.720332,237.222 209.991,237.222 C210.271001,237.222 210.504332,237.315332 210.691,237.502 C210.877668,237.688668 210.971,237.917332 210.971,238.188 C210.971,238.458668 210.877668,238.689666 210.691,238.881 C210.504332,239.072334 210.271001,239.168 209.991,239.168 C209.720332,239.168 209.491668,239.072334 209.305,238.881 C209.118332,238.689666 209.025,238.458668 209.025,238.188 L209.025,238.188 Z M162.314,258.27 C162.314,257.915332 162.260334,257.621334 162.153,257.388 C162.045666,257.154666 161.901001,256.970334 161.719,256.835 C161.536999,256.699666 161.324668,256.604 161.082,256.548 C160.839332,256.492 160.578001,256.464 160.298,256.464 L158.562,256.464 L158.562,259.936 L160.242,259.936 C160.475335,259.936 160.715665,259.915 160.963,259.873 C161.210335,259.831 161.434332,259.749334 161.635,259.628 C161.835668,259.506666 161.998999,259.336334 162.125,259.117 C162.251001,258.897666 162.314,258.615335 162.314,258.27 L162.314,258.27 Z M161.936,253.874 C161.936,253.341997 161.772668,252.964001 161.446,252.74 C161.119332,252.515999 160.66667,252.404 160.088,252.404 L158.562,252.404 L158.562,255.442 L160.2,255.442 C160.760003,255.442 161.189332,255.318335 161.488,255.071 C161.786668,254.823665 161.936,254.424669 161.936,253.874 L161.936,253.874 Z M163.714,258.242 C163.714,258.774003 163.609001,259.214998 163.399,259.565 C163.188999,259.915002 162.911335,260.197332 162.566,260.412 C162.220665,260.626668 161.828669,260.778333 161.39,260.867 C160.951331,260.955667 160.508002,261 160.06,261 L157.232,261 L157.232,251.354 L159.85,251.354 C160.279335,251.354 160.701665,251.391333 161.117,251.466 C161.532335,251.540667 161.900998,251.671332 162.223,251.858 C162.545002,252.044668 162.803999,252.294332 163,252.607 C163.196001,252.919668 163.294,253.313998 163.294,253.79 C163.294,254.098002 163.245,254.370999 163.147,254.609 C163.049,254.847001 162.920667,255.049999 162.762,255.218 C162.603333,255.386001 162.423668,255.521333 162.223,255.624 C162.022332,255.726667 161.819334,255.801333 161.614,255.848 L161.614,255.904 C161.856668,255.950667 162.101665,256.023 162.349,256.121 C162.596335,256.219 162.822666,256.358999 163.028,256.541 C163.233334,256.723001 163.398999,256.951665 163.525,257.227 C163.651001,257.502335 163.714,257.840665 163.714,258.242 L163.714,258.242 Z M167.116,253.622 L167.116,258.83 C167.116,259.306002 167.197666,259.646666 167.361,259.852 C167.524334,260.057334 167.806665,260.16 168.208,260.16 C168.590669,260.16 168.938332,260.048001 169.251,259.824 C169.563668,259.599999 169.817999,259.334002 170.014,259.026 L170.014,253.622 L171.302,253.622 L171.302,261 L170.196,261 L170.098,260.02 C169.808665,260.393335 169.470335,260.677999 169.083,260.874 C168.695665,261.070001 168.287335,261.168 167.858,261.168 C167.148663,261.168 166.633002,260.976669 166.311,260.594 C165.988998,260.211331 165.828,259.67467 165.828,258.984 L165.828,253.622 L167.116,253.622 Z M175.796,260.132 C176.272002,260.132 176.649999,260.031668 176.93,259.831 C177.210001,259.630332 177.35,259.357335 177.35,259.012 C177.35,258.834666 177.324334,258.678334 177.273,258.543 C177.221666,258.407666 177.128334,258.288667 176.993,258.186 C176.857666,258.083333 176.673335,257.99 176.44,257.906 C176.206665,257.822 175.908002,257.733334 175.544,257.64 C175.207998,257.556 174.907001,257.455667 174.641,257.339 C174.374999,257.222333 174.146334,257.080001 173.955,256.912 C173.763666,256.743999 173.616667,256.545668 173.514,256.317 C173.411333,256.088332 173.36,255.824668 173.36,255.526 C173.36,255.217998 173.429999,254.935668 173.57,254.679 C173.710001,254.422332 173.903665,254.203001 174.151,254.021 C174.398335,253.838999 174.689998,253.699 175.026,253.601 C175.362002,253.503 175.725998,253.454 176.118,253.454 C176.622003,253.454 177.069998,253.523999 177.462,253.664 C177.854002,253.804001 178.199332,253.981332 178.498,254.196 L177.924,255.064 C177.653332,254.877332 177.373335,254.732667 177.084,254.63 C176.794665,254.527333 176.454002,254.476 176.062,254.476 C175.660665,254.476 175.331668,254.562332 175.075,254.735 C174.818332,254.907668 174.69,255.143332 174.69,255.442 C174.69,255.600667 174.720333,255.735999 174.781,255.848 C174.841667,255.960001 174.939666,256.062666 175.075,256.156 C175.210334,256.249334 175.387666,256.333333 175.607,256.408 C175.826334,256.482667 176.089998,256.562 176.398,256.646 C176.724668,256.739334 177.030332,256.841999 177.315,256.954 C177.599668,257.066001 177.846999,257.208332 178.057,257.381 C178.267001,257.553668 178.432666,257.763665 178.554,258.011 C178.675334,258.258335 178.736,258.559332 178.736,258.914 C178.736,259.306002 178.654334,259.644332 178.491,259.929 C178.327666,260.213668 178.108335,260.446999 177.833,260.629 C177.557665,260.811001 177.245002,260.946333 176.895,261.035 C176.544998,261.123667 176.188002,261.168 175.824,261.168 C175.198664,261.168 174.659669,261.077001 174.207,260.895 C173.754331,260.712999 173.364668,260.482001 173.038,260.202 L173.752,259.39 C174.041335,259.632668 174.356332,259.816999 174.697,259.943 C175.037668,260.069001 175.403998,260.132 175.796,260.132 L175.796,260.132 Z M182.166,251.06 C182.166,251.312001 182.082001,251.521999 181.914,251.69 C181.745999,251.858001 181.526668,251.942 181.256,251.942 C180.985332,251.942 180.768334,251.858001 180.605,251.69 C180.441666,251.521999 180.36,251.312001 180.36,251.06 C180.36,250.817332 180.441666,250.612001 180.605,250.444 C180.768334,250.275999 180.985332,250.192 181.256,250.192 C181.526668,250.192 181.745999,250.275999 181.914,250.444 C182.082001,250.612001 182.166,250.817332 182.166,251.06 L182.166,251.06 Z M180.612,261 L180.612,253.622 L181.9,253.622 L181.9,261 L180.612,261 Z M185.876,261 L184.588,261 L184.588,253.622 L185.694,253.622 L185.792,254.63 C186.090668,254.247331 186.447665,253.955668 186.863,253.755 C187.278335,253.554332 187.705331,253.454 188.144,253.454 C188.86267,253.454 189.375998,253.645331 189.684,254.028 C189.992002,254.410669 190.146,254.94733 190.146,255.638 L190.146,261 L188.858,261 L188.858,255.722 C188.858,255.273998 188.771668,254.952001 188.599,254.756 C188.426332,254.559999 188.130002,254.462 187.71,254.462 C187.513999,254.462 187.325001,254.497 187.143,254.567 C186.960999,254.637 186.793001,254.727999 186.639,254.84 C186.484999,254.952001 186.342667,255.080333 186.212,255.225 C186.081333,255.369667 185.969334,255.511999 185.876,255.652 L185.876,261 Z M193.632,257.752 C193.688,258.573337 193.893332,259.172998 194.248,259.551 C194.602668,259.929002 195.059997,260.118 195.62,260.118 C195.956002,260.118 196.268665,260.069 196.558,259.971 C196.847335,259.873 197.150665,259.693335 197.468,259.432 L198.056,260.286 C197.710665,260.556668 197.332669,260.771333 196.922,260.93 C196.511331,261.088667 196.068002,261.168 195.592,261.168 C195.041331,261.168 194.558335,261.074668 194.143,260.888 C193.727665,260.701332 193.380001,260.440002 193.1,260.104 C192.819999,259.767998 192.610001,259.364336 192.47,258.893 C192.329999,258.421664 192.26,257.89667 192.26,257.318 C192.26,256.757997 192.329999,256.242336 192.47,255.771 C192.610001,255.299664 192.815332,254.893668 193.086,254.553 C193.356668,254.212332 193.683331,253.944001 194.066,253.748 C194.448669,253.551999 194.887331,253.454 195.382,253.454 C196.352672,253.454 197.092331,253.77833 197.601,254.427 C198.109669,255.07567 198.364,255.964661 198.364,257.094 C198.364,257.224667 198.361667,257.345999 198.357,257.458 C198.352333,257.570001 198.345333,257.668 198.336,257.752 L193.632,257.752 Z M195.382,254.476 C194.877997,254.476 194.472002,254.664998 194.164,255.043 C193.855998,255.421002 193.678667,256.006663 193.632,256.8 L197.09,256.8 C197.071333,256.034663 196.926668,255.456002 196.656,255.064 C196.385332,254.671998 195.96067,254.476 195.382,254.476 L195.382,254.476 Z M202.228,260.132 C202.704002,260.132 203.081999,260.031668 203.362,259.831 C203.642001,259.630332 203.782,259.357335 203.782,259.012 C203.782,258.834666 203.756334,258.678334 203.705,258.543 C203.653666,258.407666 203.560334,258.288667 203.425,258.186 C203.289666,258.083333 203.105334,257.99 202.872,257.906 C202.638666,257.822 202.340002,257.733334 201.976,257.64 C201.639998,257.556 201.339001,257.455667 201.073,257.339 C200.806999,257.222333 200.578334,257.080001 200.387,256.912 C200.195666,256.743999 200.048667,256.545668 199.946,256.317 C199.843333,256.088332 199.792,255.824668 199.792,255.526 C199.792,255.217998 199.861999,254.935668 200.002,254.679 C200.142001,254.422332 200.335665,254.203001 200.583,254.021 C200.830335,253.838999 201.121998,253.699 201.458,253.601 C201.794002,253.503 202.157998,253.454 202.55,253.454 C203.054003,253.454 203.501998,253.523999 203.894,253.664 C204.286002,253.804001 204.631332,253.981332 204.93,254.196 L204.356,255.064 C204.085332,254.877332 203.805335,254.732667 203.516,254.63 C203.226665,254.527333 202.886002,254.476 202.494,254.476 C202.092665,254.476 201.763668,254.562332 201.507,254.735 C201.250332,254.907668 201.122,255.143332 201.122,255.442 C201.122,255.600667 201.152333,255.735999 201.213,255.848 C201.273667,255.960001 201.371666,256.062666 201.507,256.156 C201.642334,256.249334 201.819666,256.333333 202.039,256.408 C202.258334,256.482667 202.521998,256.562 202.83,256.646 C203.156668,256.739334 203.462332,256.841999 203.747,256.954 C204.031668,257.066001 204.278999,257.208332 204.489,257.381 C204.699001,257.553668 204.864666,257.763665 204.986,258.011 C205.107334,258.258335 205.168,258.559332 205.168,258.914 C205.168,259.306002 205.086334,259.644332 204.923,259.929 C204.759666,260.213668 204.540335,260.446999 204.265,260.629 C203.989665,260.811001 203.677002,260.946333 203.327,261.035 C202.976998,261.123667 202.620002,261.168 202.256,261.168 C201.630664,261.168 201.091669,261.077001 200.639,260.895 C200.186331,260.712999 199.796668,260.482001 199.47,260.202 L200.184,259.39 C200.473335,259.632668 200.788332,259.816999 201.129,259.943 C201.469668,260.069001 201.835998,260.132 202.228,260.132 L202.228,260.132 Z M208.724,260.132 C209.200002,260.132 209.577999,260.031668 209.858,259.831 C210.138001,259.630332 210.278,259.357335 210.278,259.012 C210.278,258.834666 210.252334,258.678334 210.201,258.543 C210.149666,258.407666 210.056334,258.288667 209.921,258.186 C209.785666,258.083333 209.601335,257.99 209.368,257.906 C209.134665,257.822 208.836002,257.733334 208.472,257.64 C208.135998,257.556 207.835001,257.455667 207.569,257.339 C207.302999,257.222333 207.074334,257.080001 206.883,256.912 C206.691666,256.743999 206.544667,256.545668 206.442,256.317 C206.339333,256.088332 206.288,255.824668 206.288,255.526 C206.288,255.217998 206.357999,254.935668 206.498,254.679 C206.638001,254.422332 206.831665,254.203001 207.079,254.021 C207.326335,253.838999 207.617998,253.699 207.954,253.601 C208.290002,253.503 208.653998,253.454 209.046,253.454 C209.550003,253.454 209.997998,253.523999 210.39,253.664 C210.782002,253.804001 211.127332,253.981332 211.426,254.196 L210.852,255.064 C210.581332,254.877332 210.301335,254.732667 210.012,254.63 C209.722665,254.527333 209.382002,254.476 208.99,254.476 C208.588665,254.476 208.259668,254.562332 208.003,254.735 C207.746332,254.907668 207.618,255.143332 207.618,255.442 C207.618,255.600667 207.648333,255.735999 207.709,255.848 C207.769667,255.960001 207.867666,256.062666 208.003,256.156 C208.138334,256.249334 208.315666,256.333333 208.535,256.408 C208.754334,256.482667 209.017998,256.562 209.326,256.646 C209.652668,256.739334 209.958332,256.841999 210.243,256.954 C210.527668,257.066001 210.774999,257.208332 210.985,257.381 C211.195001,257.553668 211.360666,257.763665 211.482,258.011 C211.603334,258.258335 211.664,258.559332 211.664,258.914 C211.664,259.306002 211.582334,259.644332 211.419,259.929 C211.255666,260.213668 211.036335,260.446999 210.761,260.629 C210.485665,260.811001 210.173002,260.946333 209.823,261.035 C209.472998,261.123667 209.116002,261.168 208.752,261.168 C208.126664,261.168 207.587669,261.077001 207.135,260.895 C206.682331,260.712999 206.292668,260.482001 205.966,260.202 L206.68,259.39 C206.969335,259.632668 207.284332,259.816999 207.625,259.943 C207.965668,260.069001 208.331998,260.132 208.724,260.132 L208.724,260.132 Z" id="Internat.-Business" fill="#FFFFFF" sketch:type="MSShapeGroup"></path>
            <path d="M236.079,239 L236.079,229.354 L237.423,229.354 L237.423,239 L236.079,239 Z M241.553,239 L240.265,239 L240.265,231.622 L241.371,231.622 L241.469,232.63 C241.767668,232.247331 242.124665,231.955668 242.54,231.755 C242.955335,231.554332 243.382331,231.454 243.821,231.454 C244.53967,231.454 245.052998,231.645331 245.361,232.028 C245.669002,232.410669 245.823,232.94733 245.823,233.638 L245.823,239 L244.535,239 L244.535,233.722 C244.535,233.273998 244.448668,232.952001 244.276,232.756 C244.103332,232.559999 243.807002,232.462 243.387,232.462 C243.190999,232.462 243.002001,232.497 242.82,232.567 C242.637999,232.637 242.470001,232.727999 242.316,232.84 C242.161999,232.952001 242.019667,233.080333 241.889,233.225 C241.758333,233.369667 241.646334,233.511999 241.553,233.652 L241.553,239 Z M250.919,228.5 C251.273668,228.5 251.581665,228.530333 251.843,228.591 C252.104335,228.651667 252.384332,228.747333 252.683,228.878 L252.277,229.816 C252.034332,229.713333 251.805668,229.641 251.591,229.599 C251.376332,229.557 251.175668,229.536 250.989,229.536 C250.578331,229.536 250.293667,229.624666 250.135,229.802 C249.976333,229.979334 249.897,230.245332 249.897,230.6 L249.897,231.622 L251.689,231.622 L251.549,232.616 L249.897,232.616 L249.897,239 L248.609,239 L248.609,232.616 L247.433,232.616 L247.433,231.622 L248.609,231.622 L248.609,230.614 C248.609,229.997997 248.804998,229.491669 249.197,229.095 C249.589002,228.698331 250.162996,228.5 250.919,228.5 L250.919,228.5 Z M257.625,235.304 C257.625,234.342662 257.464002,233.633336 257.142,233.176 C256.819998,232.718664 256.351003,232.49 255.735,232.49 C255.118997,232.49 254.645335,232.718664 254.314,233.176 C253.982665,233.633336 253.817,234.347328 253.817,235.318 C253.817,236.279338 253.980332,236.988664 254.307,237.446 C254.633668,237.903336 255.104997,238.132 255.721,238.132 C256.337003,238.132 256.808332,237.903336 257.135,237.446 C257.461668,236.988664 257.625,236.274672 257.625,235.304 L257.625,235.304 Z M252.431,235.318 C252.431,234.748664 252.505666,234.226002 252.655,233.75 C252.804334,233.273998 253.018999,232.865668 253.299,232.525 C253.579001,232.184332 253.924331,231.920668 254.335,231.734 C254.745669,231.547332 255.212331,231.454 255.735,231.454 C256.257669,231.454 256.721998,231.544999 257.128,231.727 C257.534002,231.909001 257.876999,232.167998 258.157,232.504 C258.437001,232.840002 258.649333,233.243664 258.794,233.715 C258.938667,234.186336 259.011,234.715997 259.011,235.304 C259.011,235.873336 258.936334,236.395998 258.787,236.872 C258.637666,237.348002 258.423001,237.756332 258.143,238.097 C257.862999,238.437668 257.520002,238.701332 257.114,238.888 C256.707998,239.074668 256.243669,239.168 255.721,239.168 C255.198331,239.168 254.731669,239.077001 254.321,238.895 C253.910331,238.712999 253.565001,238.454002 253.285,238.118 C253.004999,237.781998 252.792667,237.378336 252.648,236.907 C252.503333,236.435664 252.431,235.906003 252.431,235.318 L252.431,235.318 Z M261.181,239 L261.181,231.622 L262.301,231.622 L262.455,233.036 C262.884335,231.981328 263.528329,231.454 264.387,231.454 C264.648335,231.454 264.890999,231.482 265.115,231.538 L264.877,232.798 C264.764999,232.77 264.662334,232.749 264.569,232.735 C264.475666,232.721 264.363667,232.714 264.233,232.714 C263.999665,232.714 263.789668,232.767666 263.603,232.875 C263.416332,232.982334 263.248334,233.126999 263.099,233.309 C262.949666,233.491001 262.823667,233.700999 262.721,233.939 C262.618333,234.177001 262.534334,234.421999 262.469,234.674 L262.469,239 L261.181,239 Z M266.557,239 L266.557,231.622 L267.663,231.622 L267.761,232.63 C268.059668,232.247331 268.395665,231.955668 268.769,231.755 C269.142335,231.554332 269.534331,231.454 269.945,231.454 C270.449003,231.454 270.847999,231.554332 271.142,231.755 C271.436001,231.955668 271.643666,232.247331 271.765,232.63 C272.063668,232.275332 272.406665,231.990668 272.794,231.776 C273.181335,231.561332 273.584998,231.454 274.005,231.454 C274.714337,231.454 275.218332,231.645331 275.517,232.028 C275.815668,232.410669 275.965,232.94733 275.965,233.638 L275.965,239 L274.677,239 L274.677,233.806 C274.677,233.329998 274.602334,232.987001 274.453,232.777 C274.303666,232.566999 274.037669,232.462 273.655,232.462 C273.477666,232.462 273.305001,232.494666 273.137,232.56 C272.968999,232.625334 272.810334,232.713999 272.661,232.826 C272.511666,232.938001 272.371667,233.066333 272.241,233.211 C272.110333,233.355667 271.998334,233.502666 271.905,233.652 L271.905,239 L270.617,239 L270.617,233.708 C270.617,233.259998 270.537667,232.940334 270.379,232.749 C270.220333,232.557666 269.959002,232.462 269.595,232.462 C269.417666,232.462 269.245001,232.494666 269.077,232.56 C268.908999,232.625334 268.750334,232.713999 268.601,232.826 C268.451666,232.938001 268.311667,233.066333 268.181,233.211 C268.050333,233.355667 267.938334,233.502666 267.845,233.652 L267.845,239 L266.557,239 Z M283.623,237.334 C283.623,237.632668 283.667333,237.844999 283.756,237.971 C283.844667,238.097001 283.982332,238.197333 284.169,238.272 L283.861,239.168 C283.534332,239.121333 283.254335,239.018667 283.021,238.86 C282.787666,238.701333 282.615001,238.458668 282.503,238.132 C282.241665,238.486668 281.922002,238.747999 281.544,238.916 C281.165998,239.084001 280.753002,239.168 280.305,239.168 C279.55833,239.168 278.972669,238.960335 278.548,238.545 C278.123331,238.129665 277.911,237.57667 277.911,236.886 C277.911,236.120663 278.20733,235.532669 278.8,235.122 C279.39267,234.711331 280.253661,234.506 281.383,234.506 L282.335,234.506 L282.335,233.932 C282.335,233.409331 282.204335,233.040668 281.943,232.826 C281.681665,232.611332 281.280336,232.504 280.739,232.504 C280.496332,232.504 280.209335,232.534333 279.878,232.595 C279.546665,232.655667 279.189669,232.751333 278.807,232.882 L278.471,231.93 C278.928336,231.761999 279.362331,231.640667 279.773,231.566 C280.183669,231.491333 280.570998,231.454 280.935,231.454 C281.877671,231.454 282.561331,231.666331 282.986,232.091 C283.410669,232.515669 283.623,233.105996 283.623,233.862 L283.623,237.334 Z M280.655,238.202 C281.009668,238.202 281.324665,238.113334 281.6,237.936 C281.875335,237.758666 282.120332,237.506668 282.335,237.18 L282.335,235.36 L281.453,235.36 C280.659663,235.36 280.106668,235.492999 279.794,235.759 C279.481332,236.025001 279.325,236.381998 279.325,236.83 C279.325,237.287336 279.429999,237.630332 279.64,237.859 C279.850001,238.087668 280.188331,238.202 280.655,238.202 L280.655,238.202 Z M290.035,238.664 C289.810999,238.832001 289.556668,238.958 289.272,239.042 C288.987332,239.126 288.691002,239.168 288.383,239.168 C287.69233,239.168 287.188335,238.972002 286.871,238.58 C286.553665,238.187998 286.395,237.670003 286.395,237.026 L286.395,232.602 L285.219,232.602 L285.219,231.622 L286.395,231.622 L286.395,229.956 L287.683,229.802 L287.683,231.622 L289.545,231.622 L289.391,232.602 L287.683,232.602 L287.683,237.012 C287.683,237.385335 287.748333,237.660666 287.879,237.838 C288.009667,238.015334 288.238332,238.104 288.565,238.104 C288.873002,238.104 289.199665,237.996668 289.545,237.782 L290.035,238.664 Z M292.919,229.06 C292.919,229.312001 292.835001,229.521999 292.667,229.69 C292.498999,229.858001 292.279668,229.942 292.009,229.942 C291.738332,229.942 291.521334,229.858001 291.358,229.69 C291.194666,229.521999 291.113,229.312001 291.113,229.06 C291.113,228.817332 291.194666,228.612001 291.358,228.444 C291.521334,228.275999 291.738332,228.192 292.009,228.192 C292.279668,228.192 292.498999,228.275999 292.667,228.444 C292.835001,228.612001 292.919,228.817332 292.919,229.06 L292.919,229.06 Z M291.365,239 L291.365,231.622 L292.653,231.622 L292.653,239 L291.365,239 Z M299.961,235.304 C299.961,234.342662 299.800002,233.633336 299.478,233.176 C299.155998,232.718664 298.687003,232.49 298.071,232.49 C297.454997,232.49 296.981335,232.718664 296.65,233.176 C296.318665,233.633336 296.153,234.347328 296.153,235.318 C296.153,236.279338 296.316332,236.988664 296.643,237.446 C296.969668,237.903336 297.440997,238.132 298.057,238.132 C298.673003,238.132 299.144332,237.903336 299.471,237.446 C299.797668,236.988664 299.961,236.274672 299.961,235.304 L299.961,235.304 Z M294.767,235.318 C294.767,234.748664 294.841666,234.226002 294.991,233.75 C295.140334,233.273998 295.354999,232.865668 295.635,232.525 C295.915001,232.184332 296.260331,231.920668 296.671,231.734 C297.081669,231.547332 297.548331,231.454 298.071,231.454 C298.593669,231.454 299.057998,231.544999 299.464,231.727 C299.870002,231.909001 300.212999,232.167998 300.493,232.504 C300.773001,232.840002 300.985333,233.243664 301.13,233.715 C301.274667,234.186336 301.347,234.715997 301.347,235.304 C301.347,235.873336 301.272334,236.395998 301.123,236.872 C300.973666,237.348002 300.759001,237.756332 300.479,238.097 C300.198999,238.437668 299.856002,238.701332 299.45,238.888 C299.043998,239.074668 298.579669,239.168 298.057,239.168 C297.534331,239.168 297.067669,239.077001 296.657,238.895 C296.246331,238.712999 295.901001,238.454002 295.621,238.118 C295.340999,237.781998 295.128667,237.378336 294.984,236.907 C294.839333,236.435664 294.767,235.906003 294.767,235.318 L294.767,235.318 Z M304.805,239 L303.517,239 L303.517,231.622 L304.623,231.622 L304.721,232.63 C305.019668,232.247331 305.376665,231.955668 305.792,231.755 C306.207335,231.554332 306.634331,231.454 307.073,231.454 C307.79167,231.454 308.304998,231.645331 308.613,232.028 C308.921002,232.410669 309.075,232.94733 309.075,233.638 L309.075,239 L307.787,239 L307.787,233.722 C307.787,233.273998 307.700668,232.952001 307.528,232.756 C307.355332,232.559999 307.059002,232.462 306.639,232.462 C306.442999,232.462 306.254001,232.497 306.072,232.567 C305.889999,232.637 305.722001,232.727999 305.568,232.84 C305.413999,232.952001 305.271667,233.080333 305.141,233.225 C305.010333,233.369667 304.898334,233.511999 304.805,233.652 L304.805,239 Z M253.453,258.312 C253.453,258.732002 253.376001,259.116998 253.222,259.467 C253.067999,259.817002 252.844001,260.117999 252.55,260.37 C252.255999,260.622001 251.896669,260.817999 251.472,260.958 C251.047331,261.098001 250.569003,261.168 250.037,261.168 C249.327663,261.168 248.700003,261.058334 248.154,260.839 C247.607997,260.619666 247.134335,260.314002 246.733,259.922 L247.503,259.068 C247.829668,259.385335 248.193665,259.632666 248.595,259.81 C248.996335,259.987334 249.462997,260.076 249.995,260.076 C250.275001,260.076 250.540999,260.041 250.793,259.971 C251.045001,259.901 251.266666,259.793667 251.458,259.649 C251.649334,259.504333 251.798666,259.324668 251.906,259.11 C252.013334,258.895332 252.067,258.643335 252.067,258.354 C252.067,258.129999 252.034334,257.929334 251.969,257.752 C251.903666,257.574666 251.791667,257.413667 251.633,257.269 C251.474333,257.124333 251.259668,256.991334 250.989,256.87 C250.718332,256.748666 250.382335,256.622667 249.981,256.492 C249.514331,256.351999 249.101335,256.198001 248.742,256.03 C248.382665,255.861999 248.084001,255.668334 247.846,255.449 C247.607999,255.229666 247.428334,254.977668 247.307,254.693 C247.185666,254.408332 247.125,254.079335 247.125,253.706 C247.125,253.332665 247.199666,252.992002 247.349,252.684 C247.498334,252.375998 247.705999,252.110001 247.972,251.886 C248.238001,251.661999 248.557665,251.489334 248.931,251.368 C249.304335,251.246666 249.714998,251.186 250.163,251.186 C250.835003,251.186 251.401998,251.281666 251.864,251.473 C252.326002,251.664334 252.752998,251.941998 253.145,252.306 L252.389,253.146 C252.052998,252.837998 251.710002,252.616334 251.36,252.481 C251.009998,252.345666 250.629669,252.278 250.219,252.278 C249.733664,252.278 249.323002,252.389999 248.987,252.614 C248.650998,252.838001 248.483,253.183331 248.483,253.65 C248.483,253.855334 248.511,254.034999 248.567,254.189 C248.623,254.343001 248.730333,254.487666 248.889,254.623 C249.047667,254.758334 249.262332,254.886666 249.533,255.008 C249.803668,255.129334 250.158331,255.255333 250.597,255.386 C250.979669,255.507334 251.343665,255.640333 251.689,255.785 C252.034335,255.929667 252.337665,256.111666 252.599,256.331 C252.860335,256.550334 253.067999,256.820998 253.222,257.143 C253.376001,257.465002 253.453,257.854664 253.453,258.312 L253.453,258.312 Z M258.031,261.042 C257.900333,261.434002 257.744001,261.797998 257.562,262.134 C257.379999,262.470002 257.156001,262.766332 256.89,263.023 C256.623999,263.279668 256.306669,263.491999 255.938,263.66 C255.569331,263.828001 255.137669,263.935333 254.643,263.982 L254.461,262.974 C254.834335,262.908666 255.151665,262.822334 255.413,262.715 C255.674335,262.607666 255.891332,262.474667 256.064,262.316 C256.236668,262.157333 256.381333,261.968334 256.498,261.749 C256.614667,261.529666 256.715,261.280001 256.799,261 L256.365,261 L253.929,253.622 L255.301,253.622 L257.205,259.964 L257.261,259.964 L259.165,253.622 L260.495,253.622 L258.031,261.042 Z M263.771,260.132 C264.247002,260.132 264.624999,260.031668 264.905,259.831 C265.185001,259.630332 265.325,259.357335 265.325,259.012 C265.325,258.834666 265.299334,258.678334 265.248,258.543 C265.196666,258.407666 265.103334,258.288667 264.968,258.186 C264.832666,258.083333 264.648335,257.99 264.415,257.906 C264.181666,257.822 263.883002,257.733334 263.519,257.64 C263.182998,257.556 262.882001,257.455667 262.616,257.339 C262.349999,257.222333 262.121334,257.080001 261.93,256.912 C261.738666,256.743999 261.591667,256.545668 261.489,256.317 C261.386333,256.088332 261.335,255.824668 261.335,255.526 C261.335,255.217998 261.404999,254.935668 261.545,254.679 C261.685001,254.422332 261.878665,254.203001 262.126,254.021 C262.373335,253.838999 262.664998,253.699 263.001,253.601 C263.337002,253.503 263.700998,253.454 264.093,253.454 C264.597003,253.454 265.044998,253.523999 265.437,253.664 C265.829002,253.804001 266.174332,253.981332 266.473,254.196 L265.899,255.064 C265.628332,254.877332 265.348335,254.732667 265.059,254.63 C264.769665,254.527333 264.429002,254.476 264.037,254.476 C263.635665,254.476 263.306668,254.562332 263.05,254.735 C262.793332,254.907668 262.665,255.143332 262.665,255.442 C262.665,255.600667 262.695333,255.735999 262.756,255.848 C262.816667,255.960001 262.914666,256.062666 263.05,256.156 C263.185334,256.249334 263.362666,256.333333 263.582,256.408 C263.801334,256.482667 264.064998,256.562 264.373,256.646 C264.699668,256.739334 265.005332,256.841999 265.29,256.954 C265.574668,257.066001 265.821999,257.208332 266.032,257.381 C266.242001,257.553668 266.407666,257.763665 266.529,258.011 C266.650334,258.258335 266.711,258.559332 266.711,258.914 C266.711,259.306002 266.629334,259.644332 266.466,259.929 C266.302666,260.213668 266.083335,260.446999 265.808,260.629 C265.532665,260.811001 265.220002,260.946333 264.87,261.035 C264.519998,261.123667 264.163002,261.168 263.799,261.168 C263.173664,261.168 262.634669,261.077001 262.182,260.895 C261.729331,260.712999 261.339668,260.482001 261.013,260.202 L261.727,259.39 C262.016335,259.632668 262.331332,259.816999 262.672,259.943 C263.012668,260.069001 263.378998,260.132 263.771,260.132 L263.771,260.132 Z M272.311,260.664 C272.086999,260.832001 271.832668,260.958 271.548,261.042 C271.263332,261.126 270.967002,261.168 270.659,261.168 C269.96833,261.168 269.464335,260.972002 269.147,260.58 C268.829665,260.187998 268.671,259.670003 268.671,259.026 L268.671,254.602 L267.495,254.602 L267.495,253.622 L268.671,253.622 L268.671,251.956 L269.959,251.802 L269.959,253.622 L271.821,253.622 L271.667,254.602 L269.959,254.602 L269.959,259.012 C269.959,259.385335 270.024333,259.660666 270.155,259.838 C270.285667,260.015334 270.514332,260.104 270.841,260.104 C271.149002,260.104 271.475665,259.996668 271.821,259.782 L272.311,260.664 Z M274.439,257.752 C274.495,258.573337 274.700332,259.172998 275.055,259.551 C275.409668,259.929002 275.866997,260.118 276.427,260.118 C276.763002,260.118 277.075665,260.069 277.365,259.971 C277.654335,259.873 277.957665,259.693335 278.275,259.432 L278.863,260.286 C278.517665,260.556668 278.139669,260.771333 277.729,260.93 C277.318331,261.088667 276.875002,261.168 276.399,261.168 C275.848331,261.168 275.365335,261.074668 274.95,260.888 C274.534665,260.701332 274.187001,260.440002 273.907,260.104 C273.626999,259.767998 273.417001,259.364336 273.277,258.893 C273.136999,258.421664 273.067,257.89667 273.067,257.318 C273.067,256.757997 273.136999,256.242336 273.277,255.771 C273.417001,255.299664 273.622332,254.893668 273.893,254.553 C274.163668,254.212332 274.490331,253.944001 274.873,253.748 C275.255669,253.551999 275.694331,253.454 276.189,253.454 C277.159672,253.454 277.899331,253.77833 278.408,254.427 C278.916669,255.07567 279.171,255.964661 279.171,257.094 C279.171,257.224667 279.168667,257.345999 279.164,257.458 C279.159333,257.570001 279.152333,257.668 279.143,257.752 L274.439,257.752 Z M276.189,254.476 C275.684997,254.476 275.279002,254.664998 274.971,255.043 C274.662998,255.421002 274.485667,256.006663 274.439,256.8 L277.897,256.8 C277.878333,256.034663 277.733668,255.456002 277.463,255.064 C277.192332,254.671998 276.76767,254.476 276.189,254.476 L276.189,254.476 Z M281.285,261 L281.285,253.622 L282.391,253.622 L282.489,254.63 C282.787668,254.247331 283.123665,253.955668 283.497,253.755 C283.870335,253.554332 284.262331,253.454 284.673,253.454 C285.177003,253.454 285.575999,253.554332 285.87,253.755 C286.164001,253.955668 286.371666,254.247331 286.493,254.63 C286.791668,254.275332 287.134665,253.990668 287.522,253.776 C287.909335,253.561332 288.312998,253.454 288.733,253.454 C289.442337,253.454 289.946332,253.645331 290.245,254.028 C290.543668,254.410669 290.693,254.94733 290.693,255.638 L290.693,261 L289.405,261 L289.405,255.806 C289.405,255.329998 289.330334,254.987001 289.181,254.777 C289.031666,254.566999 288.765669,254.462 288.383,254.462 C288.205666,254.462 288.033001,254.494666 287.865,254.56 C287.696999,254.625334 287.538334,254.713999 287.389,254.826 C287.239666,254.938001 287.099667,255.066333 286.969,255.211 C286.838333,255.355667 286.726334,255.502666 286.633,255.652 L286.633,261 L285.345,261 L285.345,255.708 C285.345,255.259998 285.265667,254.940334 285.107,254.749 C284.948333,254.557666 284.687002,254.462 284.323,254.462 C284.145666,254.462 283.973001,254.494666 283.805,254.56 C283.636999,254.625334 283.478334,254.713999 283.329,254.826 C283.179666,254.938001 283.039667,255.066333 282.909,255.211 C282.778333,255.355667 282.666334,255.502666 282.573,255.652 L282.573,261 L281.285,261 Z M295.131,260.132 C295.607002,260.132 295.984999,260.031668 296.265,259.831 C296.545001,259.630332 296.685,259.357335 296.685,259.012 C296.685,258.834666 296.659334,258.678334 296.608,258.543 C296.556666,258.407666 296.463334,258.288667 296.328,258.186 C296.192666,258.083333 296.008334,257.99 295.775,257.906 C295.541666,257.822 295.243002,257.733334 294.879,257.64 C294.542998,257.556 294.242001,257.455667 293.976,257.339 C293.709999,257.222333 293.481334,257.080001 293.29,256.912 C293.098666,256.743999 292.951667,256.545668 292.849,256.317 C292.746333,256.088332 292.695,255.824668 292.695,255.526 C292.695,255.217998 292.764999,254.935668 292.905,254.679 C293.045001,254.422332 293.238665,254.203001 293.486,254.021 C293.733335,253.838999 294.024998,253.699 294.361,253.601 C294.697002,253.503 295.060998,253.454 295.453,253.454 C295.957003,253.454 296.404998,253.523999 296.797,253.664 C297.189002,253.804001 297.534332,253.981332 297.833,254.196 L297.259,255.064 C296.988332,254.877332 296.708335,254.732667 296.419,254.63 C296.129665,254.527333 295.789002,254.476 295.397,254.476 C294.995665,254.476 294.666668,254.562332 294.41,254.735 C294.153332,254.907668 294.025,255.143332 294.025,255.442 C294.025,255.600667 294.055333,255.735999 294.116,255.848 C294.176667,255.960001 294.274666,256.062666 294.41,256.156 C294.545334,256.249334 294.722666,256.333333 294.942,256.408 C295.161334,256.482667 295.424998,256.562 295.733,256.646 C296.059668,256.739334 296.365332,256.841999 296.65,256.954 C296.934668,257.066001 297.181999,257.208332 297.392,257.381 C297.602001,257.553668 297.767666,257.763665 297.889,258.011 C298.010334,258.258335 298.071,258.559332 298.071,258.914 C298.071,259.306002 297.989334,259.644332 297.826,259.929 C297.662666,260.213668 297.443335,260.446999 297.168,260.629 C296.892665,260.811001 296.580002,260.946333 296.23,261.035 C295.879998,261.123667 295.523002,261.168 295.159,261.168 C294.533664,261.168 293.994669,261.077001 293.542,260.895 C293.089331,260.712999 292.699668,260.482001 292.373,260.202 L293.087,259.39 C293.376335,259.632668 293.691332,259.816999 294.032,259.943 C294.372668,260.069001 294.738998,260.132 295.131,260.132 L295.131,260.132 Z" id="Information-Systems" fill="#FFFFFF" sketch:type="MSShapeGroup"></path>
            <path d="M329.808,230.418 L329.808,233.568 L333.056,233.568 L333.056,234.632 L329.808,234.632 L329.808,237.936 L333.812,237.936 L333.812,239 L328.478,239 L328.478,229.354 L333.7,229.354 L333.546,230.418 L329.808,230.418 Z M338.67,238.076 C338.940668,238.076 339.201999,238.031667 339.454,237.943 C339.706001,237.854333 339.981332,237.698001 340.28,237.474 L340.896,238.356 C340.550665,238.636001 340.189002,238.841333 339.811,238.972 C339.432998,239.102667 339.048002,239.168 338.656,239.168 C338.105331,239.168 337.624669,239.077001 337.214,238.895 C336.803331,238.712999 336.460335,238.456335 336.185,238.125 C335.909665,237.793665 335.704334,237.392336 335.569,236.921 C335.433666,236.449664 335.366,235.92467 335.366,235.346 C335.366,234.785997 335.435999,234.270336 335.576,233.799 C335.716001,233.327664 335.923665,232.917002 336.199,232.567 C336.474335,232.216998 336.817331,231.944001 337.228,231.748 C337.638669,231.551999 338.119331,231.454 338.67,231.454 C339.062002,231.454 339.444665,231.514666 339.818,231.636 C340.191335,231.757334 340.550665,231.962665 340.896,232.252 L340.266,233.092 C339.967332,232.867999 339.694335,232.716334 339.447,232.637 C339.199665,232.557666 338.940668,232.518 338.67,232.518 C338.072664,232.518 337.603668,232.748998 337.263,233.211 C336.922332,233.673002 336.752,234.384662 336.752,235.346 C336.752,236.316672 336.922332,237.014331 337.263,237.439 C337.603668,237.863669 338.072664,238.076 338.67,238.076 L338.67,238.076 Z M347.084,235.304 C347.084,234.342662 346.923002,233.633336 346.601,233.176 C346.278998,232.718664 345.810003,232.49 345.194,232.49 C344.577997,232.49 344.104335,232.718664 343.773,233.176 C343.441665,233.633336 343.276,234.347328 343.276,235.318 C343.276,236.279338 343.439332,236.988664 343.766,237.446 C344.092668,237.903336 344.563997,238.132 345.18,238.132 C345.796003,238.132 346.267332,237.903336 346.594,237.446 C346.920668,236.988664 347.084,236.274672 347.084,235.304 L347.084,235.304 Z M341.89,235.318 C341.89,234.748664 341.964666,234.226002 342.114,233.75 C342.263334,233.273998 342.477999,232.865668 342.758,232.525 C343.038001,232.184332 343.383331,231.920668 343.794,231.734 C344.204669,231.547332 344.671331,231.454 345.194,231.454 C345.716669,231.454 346.180998,231.544999 346.587,231.727 C346.993002,231.909001 347.335999,232.167998 347.616,232.504 C347.896001,232.840002 348.108333,233.243664 348.253,233.715 C348.397667,234.186336 348.47,234.715997 348.47,235.304 C348.47,235.873336 348.395334,236.395998 348.246,236.872 C348.096666,237.348002 347.882001,237.756332 347.602,238.097 C347.321999,238.437668 346.979002,238.701332 346.573,238.888 C346.166998,239.074668 345.702669,239.168 345.18,239.168 C344.657331,239.168 344.190669,239.077001 343.78,238.895 C343.369331,238.712999 343.024001,238.454002 342.744,238.118 C342.463999,237.781998 342.251667,237.378336 342.107,236.907 C341.962333,236.435664 341.89,235.906003 341.89,235.318 L341.89,235.318 Z M351.928,239 L350.64,239 L350.64,231.622 L351.746,231.622 L351.844,232.63 C352.142668,232.247331 352.499665,231.955668 352.915,231.755 C353.330335,231.554332 353.757331,231.454 354.196,231.454 C354.91467,231.454 355.427998,231.645331 355.736,232.028 C356.044002,232.410669 356.198,232.94733 356.198,233.638 L356.198,239 L354.91,239 L354.91,233.722 C354.91,233.273998 354.823668,232.952001 354.651,232.756 C354.478332,232.559999 354.182002,232.462 353.762,232.462 C353.565999,232.462 353.377001,232.497 353.195,232.567 C353.012999,232.637 352.845001,232.727999 352.691,232.84 C352.536999,232.952001 352.394667,233.080333 352.264,233.225 C352.133333,233.369667 352.021334,233.511999 351.928,233.652 L351.928,239 Z M363.506,235.304 C363.506,234.342662 363.345002,233.633336 363.023,233.176 C362.700998,232.718664 362.232003,232.49 361.616,232.49 C360.999997,232.49 360.526335,232.718664 360.195,233.176 C359.863665,233.633336 359.698,234.347328 359.698,235.318 C359.698,236.279338 359.861332,236.988664 360.188,237.446 C360.514668,237.903336 360.985997,238.132 361.602,238.132 C362.218003,238.132 362.689332,237.903336 363.016,237.446 C363.342668,236.988664 363.506,236.274672 363.506,235.304 L363.506,235.304 Z M358.312,235.318 C358.312,234.748664 358.386666,234.226002 358.536,233.75 C358.685334,233.273998 358.899999,232.865668 359.18,232.525 C359.460001,232.184332 359.805331,231.920668 360.216,231.734 C360.626669,231.547332 361.093331,231.454 361.616,231.454 C362.138669,231.454 362.602998,231.544999 363.009,231.727 C363.415002,231.909001 363.757999,232.167998 364.038,232.504 C364.318001,232.840002 364.530333,233.243664 364.675,233.715 C364.819667,234.186336 364.892,234.715997 364.892,235.304 C364.892,235.873336 364.817334,236.395998 364.668,236.872 C364.518666,237.348002 364.304001,237.756332 364.024,238.097 C363.743999,238.437668 363.401002,238.701332 362.995,238.888 C362.588998,239.074668 362.124669,239.168 361.602,239.168 C361.079331,239.168 360.612669,239.077001 360.202,238.895 C359.791331,238.712999 359.446001,238.454002 359.166,238.118 C358.885999,237.781998 358.673667,237.378336 358.529,236.907 C358.384333,236.435664 358.312,235.906003 358.312,235.318 L358.312,235.318 Z M367.062,239 L367.062,231.622 L368.168,231.622 L368.266,232.63 C368.564668,232.247331 368.900665,231.955668 369.274,231.755 C369.647335,231.554332 370.039331,231.454 370.45,231.454 C370.954003,231.454 371.352999,231.554332 371.647,231.755 C371.941001,231.955668 372.148666,232.247331 372.27,232.63 C372.568668,232.275332 372.911665,231.990668 373.299,231.776 C373.686335,231.561332 374.089998,231.454 374.51,231.454 C375.219337,231.454 375.723332,231.645331 376.022,232.028 C376.320668,232.410669 376.47,232.94733 376.47,233.638 L376.47,239 L375.182,239 L375.182,233.806 C375.182,233.329998 375.107334,232.987001 374.958,232.777 C374.808666,232.566999 374.542669,232.462 374.16,232.462 C373.982666,232.462 373.810001,232.494666 373.642,232.56 C373.473999,232.625334 373.315334,232.713999 373.166,232.826 C373.016666,232.938001 372.876667,233.066333 372.746,233.211 C372.615333,233.355667 372.503334,233.502666 372.41,233.652 L372.41,239 L371.122,239 L371.122,233.708 C371.122,233.259998 371.042667,232.940334 370.884,232.749 C370.725333,232.557666 370.464002,232.462 370.1,232.462 C369.922666,232.462 369.750001,232.494666 369.582,232.56 C369.413999,232.625334 369.255334,232.713999 369.106,232.826 C368.956666,232.938001 368.816667,233.066333 368.686,233.211 C368.555333,233.355667 368.443334,233.502666 368.35,233.652 L368.35,239 L367.062,239 Z M380.642,229.06 C380.642,229.312001 380.558001,229.521999 380.39,229.69 C380.221999,229.858001 380.002668,229.942 379.732,229.942 C379.461332,229.942 379.244334,229.858001 379.081,229.69 C378.917666,229.521999 378.836,229.312001 378.836,229.06 C378.836,228.817332 378.917666,228.612001 379.081,228.444 C379.244334,228.275999 379.461332,228.192 379.732,228.192 C380.002668,228.192 380.221999,228.275999 380.39,228.444 C380.558001,228.612001 380.642,228.817332 380.642,229.06 L380.642,229.06 Z M379.088,239 L379.088,231.622 L380.376,231.622 L380.376,239 L379.088,239 Z M385.794,238.076 C386.064668,238.076 386.325999,238.031667 386.578,237.943 C386.830001,237.854333 387.105332,237.698001 387.404,237.474 L388.02,238.356 C387.674665,238.636001 387.313002,238.841333 386.935,238.972 C386.556998,239.102667 386.172002,239.168 385.78,239.168 C385.229331,239.168 384.748669,239.077001 384.338,238.895 C383.927331,238.712999 383.584335,238.456335 383.309,238.125 C383.033665,237.793665 382.828334,237.392336 382.693,236.921 C382.557666,236.449664 382.49,235.92467 382.49,235.346 C382.49,234.785997 382.559999,234.270336 382.7,233.799 C382.840001,233.327664 383.047665,232.917002 383.323,232.567 C383.598335,232.216998 383.941331,231.944001 384.352,231.748 C384.762669,231.551999 385.243331,231.454 385.794,231.454 C386.186002,231.454 386.568665,231.514666 386.942,231.636 C387.315335,231.757334 387.674665,231.962665 388.02,232.252 L387.39,233.092 C387.091332,232.867999 386.818335,232.716334 386.571,232.637 C386.323665,232.557666 386.064668,232.518 385.794,232.518 C385.196664,232.518 384.727668,232.748998 384.387,233.211 C384.046332,233.673002 383.876,234.384662 383.876,235.346 C383.876,236.316672 384.046332,237.014331 384.387,237.439 C384.727668,237.863669 385.196664,238.076 385.794,238.076 L385.794,238.076 Z M391.478,238.132 C391.954002,238.132 392.331999,238.031668 392.612,237.831 C392.892001,237.630332 393.032,237.357335 393.032,237.012 C393.032,236.834666 393.006334,236.678334 392.955,236.543 C392.903666,236.407666 392.810334,236.288667 392.675,236.186 C392.539666,236.083333 392.355335,235.99 392.122,235.906 C391.888666,235.822 391.590002,235.733334 391.226,235.64 C390.889998,235.556 390.589001,235.455667 390.323,235.339 C390.056999,235.222333 389.828334,235.080001 389.637,234.912 C389.445666,234.743999 389.298667,234.545668 389.196,234.317 C389.093333,234.088332 389.042,233.824668 389.042,233.526 C389.042,233.217998 389.111999,232.935668 389.252,232.679 C389.392001,232.422332 389.585665,232.203001 389.833,232.021 C390.080335,231.838999 390.371998,231.699 390.708,231.601 C391.044002,231.503 391.407998,231.454 391.8,231.454 C392.304003,231.454 392.751998,231.523999 393.144,231.664 C393.536002,231.804001 393.881332,231.981332 394.18,232.196 L393.606,233.064 C393.335332,232.877332 393.055335,232.732667 392.766,232.63 C392.476665,232.527333 392.136002,232.476 391.744,232.476 C391.342665,232.476 391.013668,232.562332 390.757,232.735 C390.500332,232.907668 390.372,233.143332 390.372,233.442 C390.372,233.600667 390.402333,233.735999 390.463,233.848 C390.523667,233.960001 390.621666,234.062666 390.757,234.156 C390.892334,234.249334 391.069666,234.333333 391.289,234.408 C391.508334,234.482667 391.771998,234.562 392.08,234.646 C392.406668,234.739334 392.712332,234.841999 392.997,234.954 C393.281668,235.066001 393.528999,235.208332 393.739,235.381 C393.949001,235.553668 394.114666,235.763665 394.236,236.011 C394.357334,236.258335 394.418,236.559332 394.418,236.914 C394.418,237.306002 394.336334,237.644332 394.173,237.929 C394.009666,238.213668 393.790335,238.446999 393.515,238.629 C393.239665,238.811001 392.927002,238.946333 392.577,239.035 C392.226998,239.123667 391.870002,239.168 391.506,239.168 C390.880664,239.168 390.341669,239.077001 389.889,238.895 C389.436331,238.712999 389.046668,238.482001 388.72,238.202 L389.434,237.39 C389.723335,237.632668 390.038332,237.816999 390.379,237.943 C390.719668,238.069001 391.085998,238.132 391.478,238.132 L391.478,238.132 Z" id="Economics" fill="#FFFFFF" sketch:type="MSShapeGroup"></path>
            <path d="M155.5,45 L151.16,45 L149.5,34.76 L149.42,34.76 L147.64,45 L143.42,45 L141.18,31.14 L144.48,31.14 L145.8,42.22 L145.88,42.22 L147.76,31.14 L151.24,31.14 L153,42.2 L153.08,42.2 L154.64,31.14 L157.8,31.14 L155.5,45 Z M162.42,45 L159.22,45 L159.22,30.16 L162.42,29.84 L162.42,35.46 C162.860002,34.993331 163.336664,34.6366679 163.85,34.39 C164.363336,34.1433321 164.919997,34.02 165.52,34.02 C166.466671,34.02 167.183331,34.2966639 167.67,34.85 C168.156669,35.4033361 168.4,36.1866616 168.4,37.2 L168.4,45 L165.2,45 L165.2,37.7 C165.2,37.2066642 165.120001,36.8633343 164.96,36.67 C164.799999,36.4766657 164.553335,36.38 164.22,36.38 C163.899998,36.38 163.593335,36.4933322 163.3,36.72 C163.006665,36.9466678 162.713335,37.259998 162.42,37.66 L162.42,45 Z M179.3,41.92 C179.3,42.320002 179.349999,42.6099991 179.45,42.79 C179.550001,42.9700009 179.726665,43.1066662 179.98,43.2 L179.32,45.3 C178.679997,45.233333 178.150002,45.0966677 177.73,44.89 C177.309998,44.6833323 176.973335,44.3600022 176.72,43.92 C176.333331,44.4133358 175.853336,44.7733322 175.28,45 C174.706664,45.2266678 174.100003,45.34 173.46,45.34 C172.913331,45.34 172.420002,45.2566675 171.98,45.09 C171.539998,44.9233325 171.166668,44.6933348 170.86,44.4 C170.553332,44.1066652 170.320001,43.7566687 170.16,43.35 C169.999999,42.9433313 169.92,42.4933358 169.92,42 C169.92,40.8399942 170.353329,39.9466698 171.22,39.32 C172.086671,38.6933302 173.346658,38.38 175,38.38 L176.22,38.38 L176.22,38 C176.22,37.3733302 176.076668,36.9466678 175.79,36.72 C175.503332,36.4933322 175.000004,36.38 174.28,36.38 C173.959998,36.38 173.556669,36.4266662 173.07,36.52 C172.583331,36.6133338 172.066669,36.7533324 171.52,36.94 L170.8,34.82 C171.480003,34.553332 172.17333,34.353334 172.88,34.22 C173.58667,34.086666 174.219997,34.02 174.78,34.02 C176.393341,34.02 177.549996,34.3366635 178.25,34.97 C178.950004,35.6033365 179.3,36.5399938 179.3,37.78 L179.3,41.92 Z M174.52,43.06 C174.866668,43.06 175.186665,42.960001 175.48,42.76 C175.773335,42.559999 176.019999,42.2733352 176.22,41.9 L176.22,40.2 L175.66,40.2 C174.779996,40.2 174.166668,40.333332 173.82,40.6 C173.473332,40.866668 173.3,41.2599974 173.3,41.78 C173.3,42.180002 173.399999,42.4933322 173.6,42.72 C173.800001,42.9466678 174.106665,43.06 174.52,43.06 L174.52,43.06 Z M188.44,44.5 C188.039998,44.7800014 187.573336,44.9899993 187.04,45.13 C186.506664,45.2700007 186.006669,45.34 185.54,45.34 C184.859997,45.34 184.293336,45.2500009 183.84,45.07 C183.386664,44.8899991 183.023335,44.633335 182.75,44.3 C182.476665,43.966665 182.286667,43.5566691 182.18,43.07 C182.073333,42.5833309 182.02,42.0333364 182.02,41.42 L182.02,36.58 L180.44,36.58 L180.44,34.38 L182.02,34.38 L182.02,32.08 L185.22,31.7 L185.22,34.38 L187.72,34.38 L187.38,36.58 L185.22,36.58 L185.22,41.44 C185.22,41.9466692 185.303333,42.3033323 185.47,42.51 C185.636667,42.7166677 185.886665,42.82 186.22,42.82 C186.553335,42.82 186.933331,42.7000012 187.36,42.46 L188.44,44.5 Z M188.9,31.2 C188.9,30.733331 189.063332,30.3466682 189.39,30.04 C189.716668,29.7333318 190.119998,29.58 190.6,29.58 C191.080002,29.58 191.479998,29.7366651 191.8,30.05 C192.120002,30.3633349 192.28,30.753331 192.28,31.22 C192.28,31.486668 192.236667,31.7566653 192.15,32.03 C192.063333,32.3033347 191.913334,32.6599978 191.7,33.1 L190.44,35.72 L188.82,35.72 L189.6,32.56 C189.386666,32.4133326 189.216667,32.2300011 189.09,32.01 C188.963333,31.7899989 188.9,31.5200016 188.9,31.2 L188.9,31.2 Z M197.44,43.06 C197.933336,43.06 198.316665,42.9733342 198.59,42.8 C198.863335,42.6266658 199,42.3866682 199,42.08 C199,41.9066658 198.973334,41.7566673 198.92,41.63 C198.866666,41.5033327 198.753334,41.3833339 198.58,41.27 C198.406666,41.1566661 198.163335,41.0500005 197.85,40.95 C197.536665,40.8499995 197.120003,40.7266674 196.6,40.58 C195.653329,40.3266654 194.910003,39.933336 194.37,39.4 C193.829997,38.866664 193.56,38.166671 193.56,37.3 C193.56,36.8599978 193.656666,36.440002 193.85,36.04 C194.043334,35.639998 194.326665,35.2900015 194.7,34.99 C195.073335,34.6899985 195.539997,34.4533342 196.1,34.28 C196.660003,34.1066658 197.31333,34.02 198.06,34.02 C198.873337,34.02 199.629997,34.1399988 200.33,34.38 C201.030003,34.6200012 201.593331,34.8999984 202.02,35.22 L200.72,37.1 C200.333331,36.8599988 199.926669,36.6666674 199.5,36.52 C199.073331,36.3733326 198.640002,36.3 198.2,36.3 C197.733331,36.3 197.380001,36.3733326 197.14,36.52 C196.899999,36.6666674 196.78,36.8666654 196.78,37.12 C196.78,37.253334 196.806666,37.3733328 196.86,37.48 C196.913334,37.5866672 197.023332,37.6899995 197.19,37.79 C197.356668,37.8900005 197.589998,37.9933328 197.89,38.1 C198.190001,38.2066672 198.586664,38.326666 199.08,38.46 C199.573336,38.6066674 200.019998,38.7733324 200.42,38.96 C200.820002,39.1466676 201.159999,39.3699987 201.44,39.63 C201.720001,39.8900013 201.936666,40.1966649 202.09,40.55 C202.243334,40.9033351 202.32,41.3266642 202.32,41.82 C202.32,42.3800028 202.193335,42.8766645 201.94,43.31 C201.686665,43.7433355 201.346669,44.1099985 200.92,44.41 C200.493331,44.7100015 199.98667,44.9399992 199.4,45.1 C198.81333,45.2600008 198.193337,45.34 197.54,45.34 C196.593329,45.34 195.736671,45.1966681 194.97,44.91 C194.203329,44.6233319 193.560003,44.2400024 193.04,43.76 L194.62,42 C195.033335,42.3200016 195.473331,42.5766657 195.94,42.77 C196.406669,42.9633343 196.906664,43.06 197.44,43.06 L197.44,43.06 Z M214.58,45 C214.153331,46.3600068 213.463338,47.4166629 212.51,48.17 C211.556662,48.9233371 210.246675,49.3466662 208.58,49.44 L208.22,47.18 C208.740003,47.113333 209.183332,47.0266672 209.55,46.92 C209.916669,46.8133328 210.233332,46.6733342 210.5,46.5 C210.766668,46.3266658 210.986666,46.1200012 211.16,45.88 C211.333334,45.6399988 211.493333,45.3466684 211.64,45 L210.54,45 L207.34,34.38 L210.74,34.38 L212.56,42.8 L212.64,42.8 L214.64,34.38 L217.94,34.38 L214.58,45 Z M225.3,39.66 C225.3,38.5133276 225.143335,37.6800026 224.83,37.16 C224.516665,36.6399974 224.040003,36.38 223.4,36.38 C222.759997,36.38 222.280002,36.6399974 221.96,37.16 C221.639998,37.6800026 221.48,38.5199942 221.48,39.68 C221.48,40.8533392 221.636665,41.6999974 221.95,42.22 C222.263335,42.7400026 222.746663,43 223.4,43 C224.040003,43 224.516665,42.7400026 224.83,42.22 C225.143335,41.6999974 225.3,40.8466726 225.3,39.66 L225.3,39.66 Z M218.16,39.68 C218.16,38.8399958 218.279999,38.0700035 218.52,37.37 C218.760001,36.6699965 219.106664,36.0733358 219.56,35.58 C220.013336,35.0866642 220.56333,34.7033347 221.21,34.43 C221.85667,34.1566653 222.586663,34.02 223.4,34.02 C224.213337,34.02 224.94333,34.153332 225.59,34.42 C226.23667,34.686668 226.783331,35.0666642 227.23,35.56 C227.676669,36.0533358 228.019999,36.6466632 228.26,37.34 C228.500001,38.0333368 228.62,38.8066624 228.62,39.66 C228.62,41.4466756 228.160005,42.839995 227.24,43.84 C226.319995,44.840005 225.040008,45.34 223.4,45.34 C221.746658,45.34 220.460005,44.8466716 219.54,43.86 C218.619995,42.8733284 218.16,41.480009 218.16,39.68 L218.16,39.68 Z M233.58,34.38 L233.58,41.64 C233.58,42.0133352 233.636666,42.3233321 233.75,42.57 C233.863334,42.8166679 234.113331,42.94 234.5,42.94 C234.860002,42.94 235.186665,42.8366677 235.48,42.63 C235.773335,42.4233323 236.026666,42.1600016 236.24,41.84 L236.24,34.38 L239.44,34.38 L239.44,45 L236.64,45 L236.5,43.76 C236.139998,44.2800026 235.683336,44.673332 235.13,44.94 C234.576664,45.206668 233.980003,45.34 233.34,45.34 C232.299995,45.34 231.546669,45.0433363 231.08,44.45 C230.613331,43.8566637 230.38,43.0533384 230.38,42.04 L230.38,34.38 L233.58,34.38 Z M241.9,45 L241.9,34.38 L244.74,34.38 L244.98,36.36 C245.233335,35.6399964 245.599998,35.0766687 246.08,34.67 C246.560002,34.2633313 247.099997,34.06 247.7,34.06 C247.886668,34.06 248.063333,34.0733332 248.23,34.1 C248.396667,34.1266668 248.573332,34.1666664 248.76,34.22 L248.24,37.32 C247.946665,37.2266662 247.626668,37.18 247.28,37.18 C246.959998,37.18 246.680001,37.2433327 246.44,37.37 C246.199999,37.4966673 245.996668,37.6699989 245.83,37.89 C245.663332,38.1100011 245.520001,38.3733318 245.4,38.68 C245.279999,38.9866682 245.18,39.3133316 245.1,39.66 L245.1,45 L241.9,45 Z M254.56,45 L254.56,34.38 L257.34,34.38 L257.58,35.6 C258.046669,35.0533306 258.533331,34.6533346 259.04,34.4 C259.546669,34.1466654 260.079997,34.02 260.64,34.02 C261.906673,34.02 262.746665,34.5466614 263.16,35.6 C263.640002,35.066664 264.146664,34.6700013 264.68,34.41 C265.213336,34.1499987 265.753331,34.02 266.3,34.02 C267.246671,34.02 267.949998,34.2966639 268.41,34.85 C268.870002,35.4033361 269.1,36.1866616 269.1,37.2 L269.1,45 L265.9,45 L265.9,37.64 C265.9,37.173331 265.833334,36.8466676 265.7,36.66 C265.566666,36.4733324 265.353335,36.38 265.06,36.38 C264.779999,36.38 264.500001,36.4899989 264.22,36.71 C263.939999,36.9300011 263.680001,37.2333314 263.44,37.62 L263.44,45 L260.24,45 L260.24,37.58 C260.24,37.1399978 260.170001,36.8300009 260.03,36.65 C259.889999,36.4699991 259.673335,36.38 259.38,36.38 C259.113332,36.38 258.840001,36.4899989 258.56,36.71 C258.279999,36.9300011 258.013335,37.2333314 257.76,37.62 L257.76,45 L254.56,45 Z M280.02,41.92 C280.02,42.320002 280.069999,42.6099991 280.17,42.79 C280.27,42.9700009 280.446665,43.1066662 280.7,43.2 L280.04,45.3 C279.399997,45.233333 278.870002,45.0966677 278.45,44.89 C278.029998,44.6833323 277.693335,44.3600022 277.44,43.92 C277.053331,44.4133358 276.573336,44.7733322 276,45 C275.426664,45.2266678 274.820003,45.34 274.18,45.34 C273.633331,45.34 273.140002,45.2566675 272.7,45.09 C272.259998,44.9233325 271.886668,44.6933348 271.58,44.4 C271.273332,44.1066652 271.040001,43.7566687 270.88,43.35 C270.719999,42.9433313 270.64,42.4933358 270.64,42 C270.64,40.8399942 271.073329,39.9466698 271.94,39.32 C272.806671,38.6933302 274.066658,38.38 275.72,38.38 L276.94,38.38 L276.94,38 C276.94,37.3733302 276.796668,36.9466678 276.51,36.72 C276.223332,36.4933322 275.720004,36.38 275,36.38 C274.679998,36.38 274.276669,36.4266662 273.79,36.52 C273.303331,36.6133338 272.786669,36.7533324 272.24,36.94 L271.52,34.82 C272.200003,34.553332 272.89333,34.353334 273.6,34.22 C274.30667,34.086666 274.939997,34.02 275.5,34.02 C277.113341,34.02 278.269996,34.3366635 278.97,34.97 C279.670004,35.6033365 280.02,36.5399938 280.02,37.78 L280.02,41.92 Z M275.24,43.06 C275.586668,43.06 275.906665,42.960001 276.2,42.76 C276.493335,42.559999 276.739999,42.2733352 276.94,41.9 L276.94,40.2 L276.38,40.2 C275.499996,40.2 274.886668,40.333332 274.54,40.6 C274.193332,40.866668 274.02,41.2599974 274.02,41.78 C274.02,42.180002 274.119999,42.4933322 274.32,42.72 C274.520001,42.9466678 274.826665,43.06 275.24,43.06 L275.24,43.06 Z M280.24,47.1 C280.573335,46.9533326 280.876665,46.7966675 281.15,46.63 C281.423335,46.4633325 281.649999,46.2633345 281.83,46.03 C282.010001,45.7966655 282.149999,45.5166683 282.25,45.19 C282.35,44.8633317 282.4,44.4600024 282.4,43.98 L282.4,34.38 L285.6,34.38 L285.6,43.78 C285.6,44.6600044 285.500001,45.399997 285.3,46 C285.099999,46.600003 284.813335,47.1099979 284.44,47.53 C284.066665,47.9500021 283.620003,48.3099985 283.1,48.61 C282.579997,48.9100015 282.000003,49.1866654 281.36,49.44 L280.24,47.1 Z M285.9,30.6 C285.9,31.1066692 285.723335,31.5333316 285.37,31.88 C285.016665,32.2266684 284.560003,32.4 284,32.4 C283.439997,32.4 282.986668,32.2266684 282.64,31.88 C282.293332,31.5333316 282.12,31.1066692 282.12,30.6 C282.12,30.0933308 282.293332,29.6666684 282.64,29.32 C282.986668,28.9733316 283.439997,28.8 284,28.8 C284.560003,28.8 285.016665,28.9733316 285.37,29.32 C285.723335,29.6666684 285.9,30.0933308 285.9,30.6 L285.9,30.6 Z M294.58,39.66 C294.58,38.5133276 294.423335,37.6800026 294.11,37.16 C293.796665,36.6399974 293.320003,36.38 292.68,36.38 C292.039997,36.38 291.560002,36.6399974 291.24,37.16 C290.919998,37.6800026 290.76,38.5199942 290.76,39.68 C290.76,40.8533392 290.916665,41.6999974 291.23,42.22 C291.543335,42.7400026 292.026663,43 292.68,43 C293.320003,43 293.796665,42.7400026 294.11,42.22 C294.423335,41.6999974 294.58,40.8466726 294.58,39.66 L294.58,39.66 Z M287.44,39.68 C287.44,38.8399958 287.559999,38.0700035 287.8,37.37 C288.040001,36.6699965 288.386664,36.0733358 288.84,35.58 C289.293336,35.0866642 289.84333,34.7033347 290.49,34.43 C291.13667,34.1566653 291.866663,34.02 292.68,34.02 C293.493337,34.02 294.22333,34.153332 294.87,34.42 C295.51667,34.686668 296.063331,35.0666642 296.51,35.56 C296.956669,36.0533358 297.299999,36.6466632 297.54,37.34 C297.780001,38.0333368 297.9,38.8066624 297.9,39.66 C297.9,41.4466756 297.440005,42.839995 296.52,43.84 C295.599995,44.840005 294.320008,45.34 292.68,45.34 C291.026658,45.34 289.740005,44.8466716 288.82,43.86 C287.899995,42.8733284 287.44,41.480009 287.44,39.68 L287.44,39.68 Z M299.74,45 L299.74,34.38 L302.58,34.38 L302.82,36.36 C303.073335,35.6399964 303.439998,35.0766687 303.92,34.67 C304.400002,34.2633313 304.939997,34.06 305.54,34.06 C305.726668,34.06 305.903332,34.0733332 306.07,34.1 C306.236668,34.1266668 306.413332,34.1666664 306.6,34.22 L306.08,37.32 C305.786665,37.2266662 305.466668,37.18 305.12,37.18 C304.799998,37.18 304.520001,37.2433327 304.28,37.37 C304.039999,37.4966673 303.836667,37.6699989 303.67,37.89 C303.503332,38.1100011 303.360001,38.3733318 303.24,38.68 C303.119999,38.9866682 303.02,39.3133316 302.94,39.66 L302.94,45 L299.74,45 Z M312.3,39.88 L309.4,39.88 L309.4,39.38 C309.4,38.8066638 309.476666,38.3233353 309.63,37.93 C309.783334,37.5366647 309.979999,37.2033347 310.22,36.93 C310.460001,36.6566653 310.713332,36.4233343 310.98,36.23 C311.246668,36.0366657 311.499999,35.8500009 311.74,35.67 C311.980001,35.4899991 312.176666,35.3033343 312.33,35.11 C312.483334,34.9166657 312.56,34.686668 312.56,34.42 C312.56,34.0599982 312.436668,33.7833343 312.19,33.59 C311.943332,33.3966657 311.600002,33.3 311.16,33.3 C310.333329,33.3 309.560004,33.7066626 308.84,34.52 L306.8,32.94 C307.38667,32.2599966 308.05333,31.7300019 308.8,31.35 C309.54667,30.9699981 310.419995,30.78 311.42,30.78 C312.180004,30.78 312.839997,30.8699991 313.4,31.05 C313.960003,31.2300009 314.426665,31.4766651 314.8,31.79 C315.173335,32.1033349 315.449999,32.4633313 315.63,32.87 C315.810001,33.2766687 315.9,33.6999978 315.9,34.14 C315.9,34.6866694 315.810001,35.1399982 315.63,35.5 C315.449999,35.8600018 315.226668,36.173332 314.96,36.44 C314.693332,36.706668 314.406668,36.9433323 314.1,37.15 C313.793332,37.3566677 313.506668,37.5666656 313.24,37.78 C312.973332,37.9933344 312.750001,38.233332 312.57,38.5 C312.389999,38.766668 312.3,39.0933314 312.3,39.48 L312.3,39.88 Z M309.06,43.52 C309.06,43.2666654 309.106666,43.0300011 309.2,42.81 C309.293334,42.5899989 309.423332,42.3966675 309.59,42.23 C309.756667,42.0633325 309.949999,41.9333338 310.17,41.84 C310.390001,41.7466662 310.626665,41.7 310.88,41.7 C311.133335,41.7 311.369999,41.7466662 311.59,41.84 C311.810001,41.9333338 312.003332,42.0633325 312.17,42.23 C312.336667,42.3966675 312.466666,42.5899989 312.56,42.81 C312.653334,43.0300011 312.7,43.2666654 312.7,43.52 C312.7,43.7733346 312.653334,44.0099989 312.56,44.23 C312.466666,44.4500011 312.336667,44.6433325 312.17,44.81 C312.003332,44.9766675 311.810001,45.1066662 311.59,45.2 C311.369999,45.2933338 311.133335,45.34 310.88,45.34 C310.626665,45.34 310.390001,45.2933338 310.17,45.2 C309.949999,45.1066662 309.756667,44.9766675 309.59,44.81 C309.423332,44.6433325 309.293334,44.4500011 309.2,44.23 C309.106666,44.0099989 309.06,43.7733346 309.06,43.52 L309.06,43.52 Z" id="Whats-your-major?" fill="#FFFFFF" sketch:type="MSShapeGroup"></path>
        </g>
    </g>
</svg>