<?xml version="1.0" encoding="UTF-8" standalone="no"?>
<svg width="263px" height="118px" viewBox="0 0 263 118" version="1.1" xmlns="http://www.w3.org/2000/svg" xmlns:xlink="http://www.w3.org/1999/xlink" xmlns:sketch="http://www.bohemiancoding.com/sketch/ns">
    <!-- Generator: Sketch 3.2 (9961) - http://www.bohemiancoding.com/sketch -->
    <title>icon-devices</title>
    <desc>Created with Sketch.</desc>
    <defs></defs>
    <g id="Page-1" stroke="none" stroke-width="1" fill="none" fill-rule="evenodd" sketch:type="MSPage">
        <g id="Desktop-HD" sketch:type="MSArtboardGroup" transform="translate(-589.000000, -744.000000)" fill="#D8D8D8">
            <g id="1-2-3" sketch:type="MSLayerGroup" transform="translate(240.000000, 551.000000)">
                <g id="devices" transform="translate(348.500000, 193.000000)" sketch:type="MSShapeGroup">
                    <path d="M53.0611206,0 C48.9943453,0 46,3.74415397 46,7.81558364 L46,97.6830856 C46,101.752113 48.8342361,105.793518 52.9034281,105.793518 L106.123143,105.793518 L104.758892,113.931573 L78.8308577,113.931573 L78.8308577,118 L152.520391,118 L152.520391,113.931573 L127.956609,113.931573 L126.592962,105.793518 L179.812677,105.793518 C183.880056,105.793518 188,102.007328 188,97.9377001 L188,7.66185414 C187.998792,3.59042448 184.222026,0 180.156459,0 L53.0611206,0 Z M182,95.6415577 C182,96.6632458 181.99576,97 180.977041,97 L53.5716868,97 C52.5529673,97 52,96.2783839 52,95.2572971 L52.0454245,7.35844231 C52.0454245,6.33735553 52.3936788,6 53.4136096,6 L180.63242,6 C181.652957,6 182,6.33735553 182,7.35844231 L182,95.6415577 L182,95.6415577 Z" id="Fill-1"></path>
                    <path d="M258.332501,33 L205.832876,33 C202.838546,33 200,35.0667196 200,38.0974535 L200,112.197725 C200,115.23149 202.707479,118 205.703306,118 L258.019437,118 C261.014515,118 263,115.23149 263,112.197725 L263,38.0974535 C263,35.0667196 261.327579,33 258.332501,33 L258.332501,33 Z M231.5,35 C230.671346,35 230,35.7475884 230,36.5518489 C230,37.3512862 230.671346,38 231.5,38 C232.328654,38 233,37.3512862 233,36.5518489 C233,35.7475884 232.328654,35 231.5,35 L231.5,35 Z M231.501208,115 C230.119619,115 229,113.933232 229,112.614568 C229,111.298938 229.99871,110 231.379493,110 C232.761888,110 233.999998,111.298938 233.999998,112.614568 C234.00161,113.933232 232.883603,115 231.501208,115 L231.501208,115 Z M258,105.806816 C258,106.554279 257.553902,107 256.817233,107 L207.182008,107 C206.446098,107 206,106.554279 206,105.806816 L206,40.193184 C206,39.4472525 206.446857,39 207.182008,39 L256.817233,39 C257.553902,39 258,39.4472525 258,40.193184 L258,105.806816 L258,105.806816 Z" id="Fill-2"></path>
                    <path d="M29.8783226,59 L4.17980645,59 C1.99503226,59 0,60.7236292 0,62.8481523 L0,113.86672 C0,115.990171 2.12225806,118 4.30483871,118 L29.5262581,118 C31.7110323,118 34,115.802587 34,113.678064 L34,62.8481523 C34,60.7236292 32.0609032,59 29.8783226,59 L29.8783226,59 Z M10.1423794,62 L23.8576206,62 C24.4903436,62 25,62.4468005 25,62.9996214 C25,63.551685 24.4890059,64 23.8576206,64 L10.1423794,64 C9.51233174,64 9,63.5531995 9,62.9996214 C9,62.4468005 9.51233174,62 10.1423794,62 L10.1423794,62 Z M17,115 C15.8952959,115 15,114.105276 15,112.998485 C15,111.893714 15.8942843,111 17,111 C18.1057157,111 19,111.894724 19,112.998485 C18.9989884,114.105276 18.1057157,115 17,115 L17,115 Z M31,107.657789 C31,108.176763 30.5488914,109 29.9939384,109 L4.11660552,109 C3.56165258,109 3,108.176763 3,107.657789 L3,69.2418684 C3,68.7228947 3.56165258,68 4.11660552,68 L29.9939384,68 C30.5488914,68 31,68.7228947 31,69.2418684 L31,107.657789 L31,107.657789 Z" id="Fill-3"></path>
                </g>
            </g>
        </g>
    </g>
</svg>