<?xml version="1.0" encoding="utf-8"?>
<!-- Generator: Adobe Illustrator 16.0.4, SVG Export Plug-In . SVG Version: 6.00 Build 0)  -->
<!DOCTYPE svg PUBLIC "-//W3C//DTD SVG 1.1//EN" "http://www.w3.org/Graphics/SVG/1.1/DTD/svg11.dtd">
<svg version="1.1" id="Ebene_1" xmlns="http://www.w3.org/2000/svg" xmlns:xlink="http://www.w3.org/1999/xlink" x="0px" y="0px"
	 width="48px" height="80px" viewBox="0 0 210.453 358.555" enable-background="new 0 0 210.453 358.555"
	 xml:space="preserve">
<g id="Ebene_1_1_">
	<g>
		<g>
			<path fill="#3B3B3B" d="M71.727,357.778h-9v-44h9V357.778z"/>
			<path fill="#3B3B3B" d="M79.727,313.778h9.843l17.157,30.455v-30.455h8v44h-8.572l-17.428-31.173v31.173h-9V313.778
				L79.727,313.778z"/>
			<path fill="#3B3B3B" d="M152.727,327.542c-1-2.959-2.307-5.027-4.973-6.203c-1.488-0.646-3.118-0.97-4.94-0.97
				c-3.487,0-6.341,1.314-8.585,3.945c-2.245,2.631-3.359,6.587-3.359,11.868c0,5.32,1.219,9.086,3.648,11.296
				c2.432,2.21,5.195,3.315,8.293,3.315c3.037,0,5.526-0.646,7.468-2.39s3.136-4.627,3.587-6.627h-10.139v-8h18v24h-5.834
				l-0.91-5.623c-1.744,2.05-3.312,3.387-4.703,4.225c-2.393,1.463-5.331,2.142-8.819,2.142c-5.742,0-10.446-2.016-14.11-5.991
				c-3.822-3.995-5.731-9.473-5.731-16.407c0-7.011,1.93-12.639,5.791-16.868c3.86-4.23,8.966-6.351,15.315-6.351
				c5.508,0,9.932,1.514,13.272,4.306c3.341,2.793,5.257,6.568,5.747,10.568h-9.018V327.542z"/>
			<path fill="#3B3B3B" d="M203.898,353.5c-3.273,3.37-8.008,5.056-14.199,5.056c-6.193,0-10.926-1.686-14.199-5.056
				c-4.391-4.137-6.585-10.095-6.585-17.874c0-7.938,2.194-13.896,6.585-17.873c3.273-3.371,8.006-5.058,14.199-5.058
				c6.191,0,10.926,1.687,14.199,5.058c4.369,3.979,6.555,9.936,6.555,17.873C210.453,343.406,208.27,349.364,203.898,353.5z
				 M198.238,346.915c2.107-2.646,3.16-6.409,3.16-11.289c0-4.86-1.053-8.618-3.16-11.273c-2.106-2.655-4.952-3.982-8.539-3.982
				c-3.588,0-6.448,1.321-8.584,3.969c-2.137,2.646-3.204,6.408-3.204,11.288s1.067,8.643,3.204,11.289
				c2.136,2.646,4.996,3.968,8.584,3.968C193.286,350.884,196.132,349.56,198.238,346.915z"/>
		</g>
	</g>
	<path id="P" fill="#3B3B3B" d="M169.648,29.856c-11.729-11.571-25.308-19.552-40.734-23.718c-15.275-4.166-37.881-6.36-67.813-6.36
		H-0.273v358h54v-146h25.195c37.184,0,66.732-9.336,88.643-28.47c21.908-19.131,32.865-44.938,32.865-77.652
		C200.432,75.106,190.167,49.916,169.648,29.856z M65.915,66.924c8.699,0,15.75,7.051,15.75,15.75s-7.051,15.75-15.75,15.75
		c-8.699,0-15.75-7.051-15.75-15.75S57.216,66.924,65.915,66.924z M65.915,146.757c-8.699,0-15.75-7.051-15.75-15.75
		s7.051-15.75,15.75-15.75c8.698,0,15.75,7.051,15.75,15.75S74.613,146.757,65.915,146.757z M99.727,157.842
		c0-11.886,0-86.822,0-102.887c33,5.828,49.024,20.5,49.024,50.121C148.751,136.258,132.727,152.173,99.727,157.842z"/>
</g>
<g id="Guides">
</g>
</svg>
