<?xml version="1.0" encoding="UTF-8" standalone="no"?>
<svg width="456px" height="284px" viewBox="0 0 456 284" version="1.1" xmlns="http://www.w3.org/2000/svg" xmlns:xlink="http://www.w3.org/1999/xlink" xmlns:sketch="http://www.bohemiancoding.com/sketch/ns">
    <!-- Generator: Sketch 3.2 (9961) - http://www.bohemiancoding.com/sketch -->
    <title>numeric-question</title>
    <desc>Created with Sketch.</desc>
    <defs></defs>
    <g id="Page-1" stroke="none" stroke-width="1" fill="none" fill-rule="evenodd" sketch:type="MSPage">
        <g id="numeric-question" sketch:type="MSArtboardGroup">
            <rect id="Rectangle-5" fill="#002F6F" sketch:type="MSShapeGroup" x="0" y="0" width="456" height="284"></rect>
            <path d="M24.5,212 L432,212" id="Line" stroke="#FFFFFF" stroke-width="2" stroke-linecap="square" sketch:type="MSShapeGroup"></path>
            <rect id="Rectangle-1" fill="#FFFFFF" sketch:type="MSShapeGroup" x="159.5" y="69" width="50" height="143"></rect>
            <rect id="Rectangle-1" fill="#FFFFFF" sketch:type="MSShapeGroup" x="71.5" y="111" width="50" height="101"></rect>
            <rect id="Rectangle-1" fill="#FFFFFF" sketch:type="MSShapeGroup" x="247.5" y="139" width="50" height="73"></rect>
            <rect id="Rectangle-1" fill="#FFFFFF" sketch:type="MSShapeGroup" x="335.5" y="169" width="50" height="44"></rect>
            <path d="M158.68,45 L158.68,39.08 L154.62,39.08 L154.62,45 L151.3,45 L151.3,31.14 L154.62,31.14 L154.62,36.5 L158.68,36.5 L158.68,31.14 L162,31.14 L162,45 L158.68,45 Z M171.06,39.66 C171.06,38.5133276 170.903335,37.6800026 170.59,37.16 C170.276665,36.6399974 169.800003,36.38 169.16,36.38 C168.519997,36.38 168.040002,36.6399974 167.72,37.16 C167.399998,37.6800026 167.24,38.5199942 167.24,39.68 C167.24,40.8533392 167.396665,41.6999974 167.71,42.22 C168.023335,42.7400026 168.506663,43 169.16,43 C169.800003,43 170.276665,42.7400026 170.59,42.22 C170.903335,41.6999974 171.06,40.8466726 171.06,39.66 L171.06,39.66 Z M163.92,39.68 C163.92,38.8399958 164.039999,38.0700035 164.28,37.37 C164.520001,36.6699965 164.866664,36.0733358 165.32,35.58 C165.773336,35.0866642 166.32333,34.7033347 166.97,34.43 C167.61667,34.1566653 168.346663,34.02 169.16,34.02 C169.973337,34.02 170.70333,34.153332 171.35,34.42 C171.99667,34.686668 172.543331,35.0666642 172.99,35.56 C173.436669,36.0533358 173.779999,36.6466632 174.02,37.34 C174.260001,38.0333368 174.38,38.8066624 174.38,39.66 C174.38,41.4466756 173.920005,42.839995 173,43.84 C172.079995,44.840005 170.800008,45.34 169.16,45.34 C167.506658,45.34 166.220005,44.8466716 165.3,43.86 C164.379995,42.8733284 163.92,41.480009 163.92,39.68 L163.92,39.68 Z M187.58,45 L183.76,45 L182.38,37.48 L182.3,37.48 L180.88,45 L177.14,45 L174.88,34.38 L178.1,34.38 L179.16,42.38 L179.24,42.38 L180.88,34.38 L184,34.38 L185.42,42.34 L185.5,42.34 L186.72,34.38 L189.8,34.38 L187.58,45 Z M202.36,39.66 C202.36,38.5133276 202.203335,37.6800026 201.89,37.16 C201.576665,36.6399974 201.100003,36.38 200.46,36.38 C199.819997,36.38 199.340002,36.6399974 199.02,37.16 C198.699998,37.6800026 198.54,38.5199942 198.54,39.68 C198.54,40.8533392 198.696665,41.6999974 199.01,42.22 C199.323335,42.7400026 199.806663,43 200.46,43 C201.100003,43 201.576665,42.7400026 201.89,42.22 C202.203335,41.6999974 202.36,40.8466726 202.36,39.66 L202.36,39.66 Z M195.22,39.68 C195.22,38.8399958 195.339999,38.0700035 195.58,37.37 C195.820001,36.6699965 196.166664,36.0733358 196.62,35.58 C197.073336,35.0866642 197.62333,34.7033347 198.27,34.43 C198.91667,34.1566653 199.646663,34.02 200.46,34.02 C201.273337,34.02 202.00333,34.153332 202.65,34.42 C203.29667,34.686668 203.843331,35.0666642 204.29,35.56 C204.736669,36.0533358 205.079999,36.6466632 205.32,37.34 C205.560001,38.0333368 205.68,38.8066624 205.68,39.66 C205.68,41.4466756 205.220005,42.839995 204.3,43.84 C203.379995,44.840005 202.100008,45.34 200.46,45.34 C198.806658,45.34 197.520005,44.8466716 196.6,43.86 C195.679995,42.8733284 195.22,41.480009 195.22,39.68 L195.22,39.68 Z M212.28,44.98 C212.013332,45.0866672 211.703335,45.173333 211.35,45.24 C210.996665,45.306667 210.633335,45.34 210.26,45.34 C209.379996,45.34 208.683336,45.0833359 208.17,44.57 C207.656664,44.0566641 207.4,43.2800052 207.4,42.24 L207.4,30.16 L210.6,29.82 L210.6,42 C210.6,42.3066682 210.646666,42.5199994 210.74,42.64 C210.833334,42.7600006 210.966666,42.82 211.14,42.82 C211.326668,42.82 211.499999,42.786667 211.66,42.72 L212.28,44.98 Z M218.06,36.36 C217.47333,36.36 217.003335,36.6166641 216.65,37.13 C216.296665,37.6433359 216.12,38.4933274 216.12,39.68 C216.12,40.34667 216.16,40.8933312 216.24,41.32 C216.32,41.7466688 216.436666,42.0833321 216.59,42.33 C216.743334,42.5766679 216.929999,42.7499995 217.15,42.85 C217.370001,42.9500005 217.613332,43 217.88,43 C218.226668,43 218.549999,42.8933344 218.85,42.68 C219.150002,42.4666656 219.413332,42.1666686 219.64,41.78 L219.64,37.22 C219.413332,36.953332 219.176668,36.7433341 218.93,36.59 C218.683332,36.4366659 218.393335,36.36 218.06,36.36 L218.06,36.36 Z M217.22,34.02 C217.686669,34.02 218.126665,34.1066658 218.54,34.28 C218.953335,34.4533342 219.319998,34.6933318 219.64,35 L219.64,29.82 L222.84,30.16 L222.84,45 L220.02,45 L219.86,43.84 C219.553332,44.2533354 219.150002,44.6066652 218.65,44.9 C218.149998,45.1933348 217.54667,45.34 216.84,45.34 C216.146663,45.34 215.546669,45.206668 215.04,44.94 C214.533331,44.673332 214.113335,44.2900025 213.78,43.79 C213.446665,43.2899975 213.200001,42.6933368 213.04,42 C212.879999,41.3066632 212.8,40.526671 212.8,39.66 C212.8,38.8466626 212.899999,38.0933368 213.1,37.4 C213.300001,36.7066632 213.589998,36.1100025 213.97,35.61 C214.350002,35.1099975 214.813331,34.7200014 215.36,34.44 C215.906669,34.1599986 216.526663,34.02 217.22,34.02 L217.22,34.02 Z M238.58,41.92 C238.58,42.320002 238.629999,42.6099991 238.73,42.79 C238.830001,42.9700009 239.006665,43.1066662 239.26,43.2 L238.6,45.3 C237.959997,45.233333 237.430002,45.0966677 237.01,44.89 C236.589998,44.6833323 236.253335,44.3600022 236,43.92 C235.613331,44.4133358 235.133336,44.7733322 234.56,45 C233.986664,45.2266678 233.380003,45.34 232.74,45.34 C232.193331,45.34 231.700002,45.2566675 231.26,45.09 C230.819998,44.9233325 230.446668,44.6933348 230.14,44.4 C229.833332,44.1066652 229.600001,43.7566687 229.44,43.35 C229.279999,42.9433313 229.2,42.4933358 229.2,42 C229.2,40.8399942 229.633329,39.9466698 230.5,39.32 C231.366671,38.6933302 232.626658,38.38 234.28,38.38 L235.5,38.38 L235.5,38 C235.5,37.3733302 235.356668,36.9466678 235.07,36.72 C234.783332,36.4933322 234.280004,36.38 233.56,36.38 C233.239998,36.38 232.836669,36.4266662 232.35,36.52 C231.863331,36.6133338 231.346669,36.7533324 230.8,36.94 L230.08,34.82 C230.760003,34.553332 231.45333,34.353334 232.16,34.22 C232.86667,34.086666 233.499997,34.02 234.06,34.02 C235.673341,34.02 236.829996,34.3366635 237.53,34.97 C238.230004,35.6033365 238.58,36.5399938 238.58,37.78 L238.58,41.92 Z M233.8,43.06 C234.146668,43.06 234.466665,42.960001 234.76,42.76 C235.053335,42.559999 235.299999,42.2733352 235.5,41.9 L235.5,40.2 L234.94,40.2 C234.059996,40.2 233.446668,40.333332 233.1,40.6 C232.753332,40.866668 232.58,41.2599974 232.58,41.78 C232.58,42.180002 232.679999,42.4933322 232.88,42.72 C233.080001,42.9466678 233.386665,43.06 233.8,43.06 L233.8,43.06 Z M240.98,45 L240.98,34.38 L243.82,34.38 L244.06,36.36 C244.313335,35.6399964 244.679998,35.0766687 245.16,34.67 C245.640002,34.2633313 246.179997,34.06 246.78,34.06 C246.966668,34.06 247.143332,34.0733332 247.31,34.1 C247.476667,34.1266668 247.653332,34.1666664 247.84,34.22 L247.32,37.32 C247.026665,37.2266662 246.706668,37.18 246.36,37.18 C246.039998,37.18 245.760001,37.2433327 245.52,37.37 C245.279999,37.4966673 245.076667,37.6699989 244.91,37.89 C244.743333,38.1100011 244.600001,38.3733318 244.48,38.68 C244.359999,38.9866682 244.26,39.3133316 244.18,39.66 L244.18,45 L240.98,45 Z M251.38,40.62 C251.486667,41.486671 251.749998,42.1033315 252.17,42.47 C252.590002,42.8366685 253.119997,43.02 253.76,43.02 C254.186669,43.02 254.596665,42.9466674 254.99,42.8 C255.383335,42.6533326 255.806664,42.4066684 256.26,42.06 L257.6,43.88 C257.079997,44.2933354 256.47667,44.6399986 255.79,44.92 C255.10333,45.2000014 254.340004,45.34 253.5,45.34 C252.593329,45.34 251.800003,45.2000014 251.12,44.92 C250.439997,44.6399986 249.876669,44.2500025 249.43,43.75 C248.983331,43.2499975 248.650001,42.6566701 248.43,41.97 C248.209999,41.2833299 248.1,40.5266708 248.1,39.7 C248.1,38.9133294 248.206666,38.1766701 248.42,37.49 C248.633334,36.8033299 248.953331,36.2033359 249.38,35.69 C249.806669,35.1766641 250.329997,34.7700015 250.95,34.47 C251.570003,34.1699985 252.293329,34.02 253.12,34.02 C254.640008,34.02 255.833329,34.4966619 256.7,35.45 C257.566671,36.4033381 258,37.746658 258,39.48 C258,39.6666676 257.996667,39.8633323 257.99,40.07 C257.983333,40.2766677 257.966667,40.4599992 257.94,40.62 L251.38,40.62 Z M253.14,36.16 C252.633331,36.16 252.223335,36.3633313 251.91,36.77 C251.596665,37.1766687 251.406667,37.8199956 251.34,38.7 L254.86,38.7 C254.86,38.3266648 254.83,37.9833349 254.77,37.67 C254.71,37.3566651 254.613334,37.0900011 254.48,36.87 C254.346666,36.6499989 254.170001,36.4766673 253.95,36.35 C253.729999,36.2233327 253.460002,36.16 253.14,36.16 L253.14,36.16 Z M270.4,45 C269.973331,46.3600068 269.283338,47.4166629 268.33,48.17 C267.376662,48.9233371 266.066675,49.3466662 264.4,49.44 L264.04,47.18 C264.560003,47.113333 265.003332,47.0266672 265.37,46.92 C265.736669,46.8133328 266.053332,46.6733342 266.32,46.5 C266.586668,46.3266658 266.806666,46.1200012 266.98,45.88 C267.153334,45.6399988 267.313333,45.3466684 267.46,45 L266.36,45 L263.16,34.38 L266.56,34.38 L268.38,42.8 L268.46,42.8 L270.46,34.38 L273.76,34.38 L270.4,45 Z M281.12,39.66 C281.12,38.5133276 280.963335,37.6800026 280.65,37.16 C280.336665,36.6399974 279.860003,36.38 279.22,36.38 C278.579997,36.38 278.100002,36.6399974 277.78,37.16 C277.459998,37.6800026 277.3,38.5199942 277.3,39.68 C277.3,40.8533392 277.456665,41.6999974 277.77,42.22 C278.083335,42.7400026 278.566663,43 279.22,43 C279.860003,43 280.336665,42.7400026 280.65,42.22 C280.963335,41.6999974 281.12,40.8466726 281.12,39.66 L281.12,39.66 Z M273.98,39.68 C273.98,38.8399958 274.099999,38.0700035 274.34,37.37 C274.580001,36.6699965 274.926664,36.0733358 275.38,35.58 C275.833336,35.0866642 276.38333,34.7033347 277.03,34.43 C277.67667,34.1566653 278.406663,34.02 279.22,34.02 C280.033337,34.02 280.76333,34.153332 281.41,34.42 C282.05667,34.686668 282.603331,35.0666642 283.05,35.56 C283.496669,36.0533358 283.839999,36.6466632 284.08,37.34 C284.320001,38.0333368 284.44,38.8066624 284.44,39.66 C284.44,41.4466756 283.980005,42.839995 283.06,43.84 C282.139995,44.840005 280.860008,45.34 279.22,45.34 C277.566658,45.34 276.280005,44.8466716 275.36,43.86 C274.439995,42.8733284 273.98,41.480009 273.98,39.68 L273.98,39.68 Z M289.4,34.38 L289.4,41.64 C289.4,42.0133352 289.456666,42.3233321 289.57,42.57 C289.683334,42.8166679 289.933331,42.94 290.32,42.94 C290.680002,42.94 291.006665,42.8366677 291.3,42.63 C291.593335,42.4233323 291.846666,42.1600016 292.06,41.84 L292.06,34.38 L295.26,34.38 L295.26,45 L292.46,45 L292.32,43.76 C291.959998,44.2800026 291.503336,44.673332 290.95,44.94 C290.396664,45.206668 289.800003,45.34 289.16,45.34 C288.119995,45.34 287.366669,45.0433363 286.9,44.45 C286.433331,43.8566637 286.2,43.0533384 286.2,42.04 L286.2,34.38 L289.4,34.38 Z M302.36,39.88 L299.46,39.88 L299.46,39.38 C299.46,38.8066638 299.536666,38.3233353 299.69,37.93 C299.843334,37.5366647 300.039999,37.2033347 300.28,36.93 C300.520001,36.6566653 300.773332,36.4233343 301.04,36.23 C301.306668,36.0366657 301.559999,35.8500009 301.8,35.67 C302.040001,35.4899991 302.236666,35.3033343 302.39,35.11 C302.543334,34.9166657 302.62,34.686668 302.62,34.42 C302.62,34.0599982 302.496668,33.7833343 302.25,33.59 C302.003332,33.3966657 301.660002,33.3 301.22,33.3 C300.393329,33.3 299.620004,33.7066626 298.9,34.52 L296.86,32.94 C297.44667,32.2599966 298.11333,31.7300019 298.86,31.35 C299.60667,30.9699981 300.479995,30.78 301.48,30.78 C302.240004,30.78 302.899997,30.8699991 303.46,31.05 C304.020003,31.2300009 304.486665,31.4766651 304.86,31.79 C305.233335,32.1033349 305.509999,32.4633313 305.69,32.87 C305.870001,33.2766687 305.96,33.6999978 305.96,34.14 C305.96,34.6866694 305.870001,35.1399982 305.69,35.5 C305.509999,35.8600018 305.286668,36.173332 305.02,36.44 C304.753332,36.706668 304.466668,36.9433323 304.16,37.15 C303.853332,37.3566677 303.566668,37.5666656 303.3,37.78 C303.033332,37.9933344 302.810001,38.233332 302.63,38.5 C302.449999,38.766668 302.36,39.0933314 302.36,39.48 L302.36,39.88 Z M299.12,43.52 C299.12,43.2666654 299.166666,43.0300011 299.26,42.81 C299.353334,42.5899989 299.483333,42.3966675 299.65,42.23 C299.816667,42.0633325 300.009999,41.9333338 300.23,41.84 C300.450001,41.7466662 300.686665,41.7 300.94,41.7 C301.193335,41.7 301.429999,41.7466662 301.65,41.84 C301.870001,41.9333338 302.063333,42.0633325 302.23,42.23 C302.396667,42.3966675 302.526666,42.5899989 302.62,42.81 C302.713334,43.0300011 302.76,43.2666654 302.76,43.52 C302.76,43.7733346 302.713334,44.0099989 302.62,44.23 C302.526666,44.4500011 302.396667,44.6433325 302.23,44.81 C302.063333,44.9766675 301.870001,45.1066662 301.65,45.2 C301.429999,45.2933338 301.193335,45.34 300.94,45.34 C300.686665,45.34 300.450001,45.2933338 300.23,45.2 C300.009999,45.1066662 299.816667,44.9766675 299.65,44.81 C299.483333,44.6433325 299.353334,44.4500011 299.26,44.23 C299.166666,44.0099989 299.12,43.7733346 299.12,43.52 L299.12,43.52 Z" id="How-old-are-you?" fill="#FFFFFF" sketch:type="MSShapeGroup"></path>
            <path d="M80.36,240 L80.36,230.912 L77.976,232.4 L77.288,231.376 L80.536,229.296 L81.832,229.296 L81.832,240 L80.36,240 Z M91.096,231.856 C91.096,232.837338 90.4880061,233.63733 89.272,234.256 C89.9866702,234.565335 90.5413314,234.954664 90.936,235.424 C91.3306686,235.893336 91.528,236.463997 91.528,237.136 C91.528,237.584002 91.4373342,237.994665 91.256,238.368 C91.0746658,238.741335 90.8186683,239.063999 90.488,239.336 C90.1573317,239.608001 89.7653356,239.818666 89.312,239.968 C88.8586644,240.117334 88.3600027,240.192 87.816,240.192 C87.2613306,240.192 86.7600022,240.117334 86.312,239.968 C85.8639978,239.818666 85.4800016,239.610668 85.16,239.344 C84.8399984,239.077332 84.5920009,238.757335 84.416,238.384 C84.2399991,238.010665 84.152,237.605336 84.152,237.168 C84.152,236.495997 84.3386648,235.936002 84.712,235.488 C85.0853352,235.039998 85.6026634,234.672001 86.264,234.384 C85.6879971,234.095999 85.266668,233.744002 85,233.328 C84.733332,232.911998 84.6,232.432003 84.6,231.888 C84.6,231.397331 84.7013323,230.978668 84.904,230.632 C85.1066677,230.285332 85.3653318,230.000001 85.68,229.776 C85.9946682,229.551999 86.3439981,229.389334 86.728,229.288 C87.1120019,229.186666 87.4853315,229.136 87.848,229.136 C88.2426686,229.136 88.6346647,229.186666 89.024,229.288 C89.4133353,229.389334 89.7626651,229.551999 90.072,229.776 C90.3813349,230.000001 90.6293324,230.282665 90.816,230.624 C91.0026676,230.965335 91.096,231.375998 91.096,231.856 L91.096,231.856 Z M89.992,237.152 C89.992,236.799998 89.9280006,236.504001 89.8,236.264 C89.6719994,236.023999 89.4906678,235.818668 89.256,235.648 C89.0213322,235.477332 88.733335,235.325334 88.392,235.192 C88.050665,235.058666 87.6666688,234.917334 87.24,234.768 C87.0266656,234.864 86.8266676,234.981333 86.64,235.12 C86.4533324,235.258667 86.2906674,235.423999 86.152,235.616 C86.0133326,235.808001 85.9013338,236.031999 85.816,236.288 C85.7306662,236.544001 85.688,236.837332 85.688,237.168 C85.688,237.75467 85.8746648,238.210665 86.248,238.536 C86.6213352,238.861335 87.1439966,239.024 87.816,239.024 C88.1466683,239.024 88.4479986,238.976 88.72,238.88 C88.9920014,238.784 89.2213324,238.650668 89.408,238.48 C89.5946676,238.309332 89.7386662,238.109334 89.84,237.88 C89.9413338,237.650666 89.992,237.408001 89.992,237.152 L89.992,237.152 Z M86.04,231.904 C86.04,232.192001 86.0879995,232.434666 86.184,232.632 C86.2800005,232.829334 86.423999,233.005333 86.616,233.16 C86.808001,233.314667 87.0426653,233.450666 87.32,233.568 C87.5973347,233.685334 87.9173315,233.797333 88.28,233.904 C88.7600024,233.626665 89.1093322,233.336002 89.328,233.032 C89.5466678,232.727998 89.656,232.352002 89.656,231.904 C89.656,231.402664 89.4960016,231.000002 89.176,230.696 C88.8559984,230.391998 88.4133362,230.24 87.848,230.24 C87.2933306,230.24 86.853335,230.381332 86.528,230.664 C86.202665,230.946668 86.04,231.359997 86.04,231.904 L86.04,231.904 Z M93.272,235.616 L93.272,234.368 L97.8,234.368 L97.8,235.616 L93.272,235.616 Z M105.272,232.16 C105.272,232.640002 105.189334,233.106664 105.024,233.56 C104.858666,234.013336 104.592002,234.495997 104.224,235.008 C103.855998,235.520003 103.384003,236.079997 102.808,236.688 C102.231997,237.296003 101.533337,237.989329 100.712,238.768 L105.528,238.768 L105.352,240 L99.032,240 L99.032,238.832 C99.9706714,237.893329 100.743997,237.096003 101.352,236.44 C101.960003,235.783997 102.439998,235.213336 102.792,234.728 C103.144002,234.242664 103.389333,233.805335 103.528,233.416 C103.666667,233.026665 103.736,232.624002 103.736,232.208 C103.736,231.599997 103.573335,231.138668 103.248,230.824 C102.922665,230.509332 102.498669,230.352 101.976,230.352 C101.527998,230.352 101.138668,230.445332 100.808,230.632 C100.477332,230.818668 100.141335,231.114665 99.8,231.52 L98.808,230.752 C99.2453355,230.207997 99.7279974,229.802668 100.256,229.536 C100.784003,229.269332 101.383997,229.136 102.056,229.136 C102.546669,229.136 102.989331,229.210666 103.384,229.36 C103.778669,229.509334 104.117332,229.717332 104.4,229.984 C104.682668,230.250668 104.898666,230.570665 105.048,230.944 C105.197334,231.317335 105.272,231.722664 105.272,232.16 L105.272,232.16 Z M108.92,234.656 C108.92,235.445337 108.962666,236.117331 109.048,236.672 C109.133334,237.226669 109.263999,237.677332 109.44,238.024 C109.616001,238.370668 109.829332,238.623999 110.08,238.784 C110.330668,238.944001 110.626665,239.024 110.968,239.024 C111.298668,239.024 111.591999,238.944001 111.848,238.784 C112.104001,238.623999 112.317332,238.370668 112.488,238.024 C112.658668,237.677332 112.789333,237.226669 112.88,236.672 C112.970667,236.117331 113.016,235.445337 113.016,234.656 C113.016,233.877329 112.970667,233.210669 112.88,232.656 C112.789333,232.101331 112.658668,231.650668 112.488,231.304 C112.317332,230.957332 112.104001,230.704001 111.848,230.544 C111.591999,230.383999 111.298668,230.304 110.968,230.304 C110.295997,230.304 109.786668,230.63733 109.44,231.304 C109.093332,231.97067 108.92,233.087992 108.92,234.656 L108.92,234.656 Z M114.552,234.656 C114.552,236.448009 114.256003,237.818662 113.664,238.768 C113.071997,239.717338 112.173339,240.192 110.968,240.192 C109.762661,240.192 108.864003,239.717338 108.272,238.768 C107.679997,237.818662 107.384,236.448009 107.384,234.656 C107.384,232.863991 107.679997,231.496005 108.272,230.552 C108.864003,229.607995 109.762661,229.136 110.968,229.136 C112.173339,229.136 113.071997,229.610662 113.664,230.56 C114.256003,231.509338 114.552,232.874658 114.552,234.656 L114.552,234.656 Z" id="18-20" fill="#FFFFFF" sketch:type="MSShapeGroup"></path>
            <path d="M183.896,232.16 C183.896,232.640002 183.813334,233.106664 183.648,233.56 C183.482666,234.013336 183.216002,234.495997 182.848,235.008 C182.479998,235.520003 182.008003,236.079997 181.432,236.688 C180.855997,237.296003 180.157337,237.989329 179.336,238.768 L184.152,238.768 L183.976,240 L177.656,240 L177.656,238.832 C178.594671,237.893329 179.367997,237.096003 179.976,236.44 C180.584003,235.783997 181.063998,235.213336 181.416,234.728 C181.768002,234.242664 182.013333,233.805335 182.152,233.416 C182.290667,233.026665 182.36,232.624002 182.36,232.208 C182.36,231.599997 182.197335,231.138668 181.872,230.824 C181.546665,230.509332 181.122669,230.352 180.6,230.352 C180.151998,230.352 179.762668,230.445332 179.432,230.632 C179.101332,230.818668 178.765335,231.114665 178.424,231.52 L177.432,230.752 C177.869336,230.207997 178.351997,229.802668 178.88,229.536 C179.408003,229.269332 180.007997,229.136 180.68,229.136 C181.170669,229.136 181.613331,229.210666 182.008,229.36 C182.402669,229.509334 182.741332,229.717332 183.024,229.984 C183.306668,230.250668 183.522666,230.570665 183.672,230.944 C183.821334,231.317335 183.896,231.722664 183.896,232.16 L183.896,232.16 Z M188.472,240 L188.472,230.912 L186.088,232.4 L185.4,231.376 L188.648,229.296 L189.944,229.296 L189.944,240 L188.472,240 Z" id="21" fill="#FFFFFF" sketch:type="MSShapeGroup"></path>
            <path d="M259.896,232.16 C259.896,232.640002 259.813334,233.106664 259.648,233.56 C259.482666,234.013336 259.216002,234.495997 258.848,235.008 C258.479998,235.520003 258.008003,236.079997 257.432,236.688 C256.855997,237.296003 256.157337,237.989329 255.336,238.768 L260.152,238.768 L259.976,240 L253.656,240 L253.656,238.832 C254.594671,237.893329 255.367997,237.096003 255.976,236.44 C256.584003,235.783997 257.063998,235.213336 257.416,234.728 C257.768002,234.242664 258.013333,233.805335 258.152,233.416 C258.290667,233.026665 258.36,232.624002 258.36,232.208 C258.36,231.599997 258.197335,231.138668 257.872,230.824 C257.546665,230.509332 257.122669,230.352 256.6,230.352 C256.151998,230.352 255.762668,230.445332 255.432,230.632 C255.101332,230.818668 254.765335,231.114665 254.424,231.52 L253.432,230.752 C253.869336,230.207997 254.351997,229.802668 254.88,229.536 C255.408003,229.269332 256.007997,229.136 256.68,229.136 C257.170669,229.136 257.613331,229.210666 258.008,229.36 C258.402669,229.509334 258.741332,229.717332 259.024,229.984 C259.306668,230.250668 259.522666,230.570665 259.672,230.944 C259.821334,231.317335 259.896,231.722664 259.896,232.16 L259.896,232.16 Z M268.008,232.16 C268.008,232.640002 267.925334,233.106664 267.76,233.56 C267.594666,234.013336 267.328002,234.495997 266.96,235.008 C266.591998,235.520003 266.120003,236.079997 265.544,236.688 C264.967997,237.296003 264.269337,237.989329 263.448,238.768 L268.264,238.768 L268.088,240 L261.768,240 L261.768,238.832 C262.706671,237.893329 263.479997,237.096003 264.088,236.44 C264.696003,235.783997 265.175998,235.213336 265.528,234.728 C265.880002,234.242664 266.125333,233.805335 266.264,233.416 C266.402667,233.026665 266.472,232.624002 266.472,232.208 C266.472,231.599997 266.309335,231.138668 265.984,230.824 C265.658665,230.509332 265.234669,230.352 264.712,230.352 C264.263998,230.352 263.874668,230.445332 263.544,230.632 C263.213332,230.818668 262.877335,231.114665 262.536,231.52 L261.544,230.752 C261.981336,230.207997 262.463997,229.802668 262.992,229.536 C263.520003,229.269332 264.119997,229.136 264.792,229.136 C265.282669,229.136 265.725331,229.210666 266.12,229.36 C266.514669,229.509334 266.853332,229.717332 267.136,229.984 C267.418668,230.250668 267.634666,230.570665 267.784,230.944 C267.933334,231.317335 268.008,231.722664 268.008,232.16 L268.008,232.16 Z M269.96,235.616 L269.96,234.368 L274.488,234.368 L274.488,235.616 L269.96,235.616 Z M281.96,232.16 C281.96,232.640002 281.877334,233.106664 281.712,233.56 C281.546666,234.013336 281.280002,234.495997 280.912,235.008 C280.543998,235.520003 280.072003,236.079997 279.496,236.688 C278.919997,237.296003 278.221337,237.989329 277.4,238.768 L282.216,238.768 L282.04,240 L275.72,240 L275.72,238.832 C276.658671,237.893329 277.431997,237.096003 278.04,236.44 C278.648003,235.783997 279.127998,235.213336 279.48,234.728 C279.832002,234.242664 280.077333,233.805335 280.216,233.416 C280.354667,233.026665 280.424,232.624002 280.424,232.208 C280.424,231.599997 280.261335,231.138668 279.936,230.824 C279.610665,230.509332 279.186669,230.352 278.664,230.352 C278.215998,230.352 277.826668,230.445332 277.496,230.632 C277.165332,230.818668 276.829335,231.114665 276.488,231.52 L275.496,230.752 C275.933336,230.207997 276.415997,229.802668 276.944,229.536 C277.472003,229.269332 278.071997,229.136 278.744,229.136 C279.234669,229.136 279.677331,229.210666 280.072,229.36 C280.466669,229.509334 280.805332,229.717332 281.088,229.984 C281.370668,230.250668 281.586666,230.570665 281.736,230.944 C281.885334,231.317335 281.96,231.722664 281.96,232.16 L281.96,232.16 Z M289.32,237.36 L289.32,240 L287.896,240 L287.896,237.36 L283.448,237.36 L283.448,236.304 L286.536,229.136 L287.768,229.648 L285,236.192 L287.896,236.192 L288.04,233.312 L289.32,233.312 L289.32,236.192 L290.712,236.192 L290.712,237.36 L289.32,237.36 Z" id="22-24" fill="#FFFFFF" sketch:type="MSShapeGroup"></path>
            <path d="M347.896,232.16 C347.896,232.640002 347.813334,233.106664 347.648,233.56 C347.482666,234.013336 347.216002,234.495997 346.848,235.008 C346.479998,235.520003 346.008003,236.079997 345.432,236.688 C344.855997,237.296003 344.157337,237.989329 343.336,238.768 L348.152,238.768 L347.976,240 L341.656,240 L341.656,238.832 C342.594671,237.893329 343.367997,237.096003 343.976,236.44 C344.584003,235.783997 345.063998,235.213336 345.416,234.728 C345.768002,234.242664 346.013333,233.805335 346.152,233.416 C346.290667,233.026665 346.36,232.624002 346.36,232.208 C346.36,231.599997 346.197335,231.138668 345.872,230.824 C345.546665,230.509332 345.122669,230.352 344.6,230.352 C344.151998,230.352 343.762668,230.445332 343.432,230.632 C343.101332,230.818668 342.765335,231.114665 342.424,231.52 L341.432,230.752 C341.869336,230.207997 342.351997,229.802668 342.88,229.536 C343.408003,229.269332 344.007997,229.136 344.68,229.136 C345.170669,229.136 345.613331,229.210666 346.008,229.36 C346.402669,229.509334 346.741332,229.717332 347.024,229.984 C347.306668,230.250668 347.522666,230.570665 347.672,230.944 C347.821334,231.317335 347.896,231.722664 347.896,232.16 L347.896,232.16 Z M356.376,236.576 C356.376,237.098669 356.288001,237.581331 356.112,238.024 C355.935999,238.466669 355.685335,238.847998 355.36,239.168 C355.034665,239.488002 354.645336,239.738666 354.192,239.92 C353.738664,240.101334 353.234669,240.192 352.68,240.192 C352.039997,240.192 351.456003,240.080001 350.928,239.856 C350.399997,239.631999 349.917336,239.264003 349.48,238.752 L350.488,237.936 C350.797335,238.309335 351.130665,238.578666 351.488,238.744 C351.845335,238.909334 352.237331,238.992 352.664,238.992 C353.336003,238.992 353.869331,238.768002 354.264,238.32 C354.658669,237.871998 354.856,237.280004 354.856,236.544 C354.856,236.127998 354.805334,235.778668 354.704,235.496 C354.602666,235.213332 354.464001,234.984001 354.288,234.808 C354.111999,234.631999 353.906668,234.506667 353.672,234.432 C353.437332,234.357333 353.181335,234.32 352.904,234.32 C352.658665,234.32 352.421334,234.352 352.192,234.416 C351.962666,234.48 351.720001,234.570666 351.464,234.688 L350.312,234.688 L350.312,229.296 L356.072,229.296 L355.896,230.448 L351.72,230.448 L351.72,233.536 C351.997335,233.397333 352.274665,233.304 352.552,233.256 C352.829335,233.208 353.095999,233.184 353.352,233.184 C354.258671,233.184 354.989331,233.482664 355.544,234.08 C356.098669,234.677336 356.376,235.509328 356.376,236.576 L356.376,236.576 Z M358.168,235.616 L358.168,234.368 L362.696,234.368 L362.696,235.616 L358.168,235.616 Z M370.472,236.912 C370.472,237.381336 370.386668,237.815998 370.216,238.216 C370.045332,238.616002 369.800002,238.962665 369.48,239.256 C369.159998,239.549335 368.776002,239.778666 368.328,239.944 C367.879998,240.109334 367.378669,240.192 366.824,240.192 C366.183997,240.192 365.589336,240.074668 365.04,239.84 C364.490664,239.605332 364.002669,239.232003 363.576,238.72 L364.552,237.92 C364.861335,238.293335 365.199998,238.565332 365.568,238.736 C365.936002,238.906668 366.338664,238.992 366.776,238.992 C367.448003,238.992 367.975998,238.802669 368.36,238.424 C368.744002,238.045331 368.936,237.536003 368.936,236.896 C368.936,236.159996 368.744002,235.656001 368.36,235.384 C367.975998,235.111999 367.45867,234.976 366.808,234.976 L366.12,234.976 L366.296,233.84 L366.728,233.84 C366.994668,233.84 367.245332,233.8 367.48,233.72 C367.714668,233.64 367.919999,233.520001 368.096,233.36 C368.272001,233.199999 368.410666,233.002668 368.512,232.768 C368.613334,232.533332 368.664,232.261335 368.664,231.952 C368.664,231.439997 368.504002,231.040001 368.184,230.752 C367.863998,230.463999 367.432003,230.32 366.888,230.32 C366.461331,230.32 366.077335,230.394666 365.736,230.544 C365.394665,230.693334 365.042668,230.938665 364.68,231.28 L363.912,230.4 C364.818671,229.557329 365.837328,229.136 366.968,229.136 C367.480003,229.136 367.933331,229.210666 368.328,229.36 C368.722669,229.509334 369.053332,229.709332 369.32,229.96 C369.586668,230.210668 369.789333,230.498665 369.928,230.824 C370.066667,231.149335 370.136,231.493332 370.136,231.856 C370.136,232.528003 369.941335,233.071998 369.552,233.488 C369.162665,233.904002 368.690669,234.170666 368.136,234.288 L368.152,234.352 C368.450668,234.384 368.741332,234.458666 369.024,234.576 C369.306668,234.693334 369.554666,234.861332 369.768,235.08 C369.981334,235.298668 370.151999,235.559998 370.28,235.864 C370.408001,236.168002 370.472,236.517331 370.472,236.912 L370.472,236.912 Z M373.816,234.656 C373.816,235.445337 373.858666,236.117331 373.944,236.672 C374.029334,237.226669 374.159999,237.677332 374.336,238.024 C374.512001,238.370668 374.725332,238.623999 374.976,238.784 C375.226668,238.944001 375.522665,239.024 375.864,239.024 C376.194668,239.024 376.487999,238.944001 376.744,238.784 C377.000001,238.623999 377.213332,238.370668 377.384,238.024 C377.554668,237.677332 377.685333,237.226669 377.776,236.672 C377.866667,236.117331 377.912,235.445337 377.912,234.656 C377.912,233.877329 377.866667,233.210669 377.776,232.656 C377.685333,232.101331 377.554668,231.650668 377.384,231.304 C377.213332,230.957332 377.000001,230.704001 376.744,230.544 C376.487999,230.383999 376.194668,230.304 375.864,230.304 C375.191997,230.304 374.682668,230.63733 374.336,231.304 C373.989332,231.97067 373.816,233.087992 373.816,234.656 L373.816,234.656 Z M379.448,234.656 C379.448,236.448009 379.152003,237.818662 378.56,238.768 C377.967997,239.717338 377.069339,240.192 375.864,240.192 C374.658661,240.192 373.760003,239.717338 373.168,238.768 C372.575997,237.818662 372.28,236.448009 372.28,234.656 C372.28,232.863991 372.575997,231.496005 373.168,230.552 C373.760003,229.607995 374.658661,229.136 375.864,229.136 C377.069339,229.136 377.967997,229.610662 378.56,230.56 C379.152003,231.509338 379.448,232.874658 379.448,234.656 L379.448,234.656 Z" id="25-30" fill="#FFFFFF" sketch:type="MSShapeGroup"></path>
        </g>
    </g>
</svg>