<?xml version="1.0" encoding="UTF-8" standalone="no"?>
<svg width="77px" height="67px" viewBox="0 0 77 67" version="1.1" xmlns="http://www.w3.org/2000/svg" xmlns:xlink="http://www.w3.org/1999/xlink" xmlns:sketch="http://www.bohemiancoding.com/sketch/ns">
    <!-- Generator: Sketch 3.0 (7574) - http://www.bohemiancoding.com/sketch -->
    <title>quote</title>
    <description>Created with Sketch.</description>
    <defs></defs>
    <g id="Page-1" stroke="none" stroke-width="1" fill="none" fill-rule="evenodd" sketch:type="MSPage">
        <g id="quote" sketch:type="MSLayerGroup" transform="translate(1.000000, 1.000000)" fill="#EDEEEF">
            <path d="M14.271,-0.276 C6.219,-0.276 -0.308,6.44 -0.308,14.724 C-0.308,23.009 6.219,29.724 14.271,29.724 C28.849,29.724 19.13,58.724 -0.308,58.724 L-0.308,65.724 C34.382,65.724 47.978,-0.276 14.271,-0.276 L14.271,-0.276 Z M56.271,-0.276 C48.219,-0.276 41.692,6.44 41.692,14.724 C41.692,23.009 48.219,29.724 56.271,29.724 C70.849,29.724 61.13,58.724 41.692,58.724 L41.692,65.724 C76.382,65.724 89.978,-0.276 56.271,-0.276 L56.271,-0.276 Z" id="Shape" sketch:type="MSShapeGroup"></path>
        </g>
    </g>
</svg>